<?xml version="1.0" encoding="UTF-8" standalone="no"?>
<!-- Created with Inkscape (http://www.inkscape.org/) -->

<svg
   xmlns:dc="http://purl.org/dc/elements/1.1/"
   xmlns:cc="http://creativecommons.org/ns#"
   xmlns:rdf="http://www.w3.org/1999/02/22-rdf-syntax-ns#"
   xmlns:svg="http://www.w3.org/2000/svg"
   xmlns="http://www.w3.org/2000/svg"
   xmlns:xlink="http://www.w3.org/1999/xlink"
   xmlns:sodipodi="http://sodipodi.sourceforge.net/DTD/sodipodi-0.dtd"
   xmlns:inkscape="http://www.inkscape.org/namespaces/inkscape"
   width="256"
   height="256"
   viewBox="0 0 256 256"
   id="svg2"
   version="1.1"
   inkscape:version="0.92.3 (2405546, 2018-03-11)"
   sodipodi:docname="lliurex-freeradius.svg">
  <defs
     id="defs4">
    <linearGradient
       id="linearGradient5971-406"
       inkscape:collect="always">
      <stop
         id="stop2989"
         offset="0"
         style="stop-color:#f4fafa;stop-opacity:1;" />
      <stop
         id="stop2991"
         offset="1"
         style="stop-color:#f4fafa;stop-opacity:0;" />
    </linearGradient>
    <radialGradient
       gradientUnits="userSpaceOnUse"
       r="2.8510637"
       fy="14.425532"
       fx="25.148935"
       cy="14.425532"
       cx="25.148935"
       id="radialGradient5977-155"
       xlink:href="#linearGradient5971-406"
       inkscape:collect="always" />
    <radialGradient
       r="2.8510637"
       fy="14.425532"
       fx="25.148935"
       cy="14.425532"
       cx="25.148935"
       gradientUnits="userSpaceOnUse"
       id="radialGradient5985-197"
       xlink:href="#linearGradient5971-406"
       inkscape:collect="always" />
    <linearGradient
       id="linearGradient2087-143">
      <stop
         id="stop2967"
         offset="0"
         style="stop-color:#4dafff;stop-opacity:1;" />
      <stop
         style="stop-color:#2573eb;stop-opacity:1;"
         offset="0.0000000"
         id="stop2969" />
      <stop
         id="stop2971"
         offset="0.75"
         style="stop-color:#114bb9;stop-opacity:1;" />
      <stop
         id="stop2973"
         offset="1"
         style="stop-color:#11419b;stop-opacity:1;" />
    </linearGradient>
    <radialGradient
       gradientTransform="matrix(1.119035,0,0,1.119035,-6.268888,-7.140347)"
       r="56.442806"
       fy="59.985241"
       fx="52.664207"
       cy="59.985241"
       cx="52.664207"
       gradientUnits="userSpaceOnUse"
       id="radialGradient5059-349"
       xlink:href="#linearGradient2087-143"
       inkscape:collect="always" />
    <radialGradient
       r="2.8510637"
       fy="14.425532"
       fx="25.148935"
       cy="14.425532"
       cx="25.148935"
       gradientUnits="userSpaceOnUse"
       id="radialGradient5981-541"
       xlink:href="#linearGradient5971-406"
       inkscape:collect="always" />
    <linearGradient
       id="linearGradient6519-443"
       inkscape:collect="always">
      <stop
         id="stop2913"
         offset="0"
         style="stop-color:#000000;stop-opacity:0.39215687" />
      <stop
         id="stop2915"
         offset="1"
         style="stop-color:#000000;stop-opacity:0;" />
    </linearGradient>
    <radialGradient
       gradientUnits="userSpaceOnUse"
       gradientTransform="matrix(0.91358,2.206993e-7,-4.100829e-8,0.169753,4.848958,95.59596)"
       r="54.105412"
       fy="136.4689"
       fx="56.109314"
       cy="115.14162"
       cx="56.109314"
       id="radialGradient6525-772"
       xlink:href="#linearGradient6519-443"
       inkscape:collect="always" />
    <radialGradient
       r="2.8510637"
       fy="14.425532"
       fx="25.148935"
       cy="14.425532"
       cx="25.148935"
       gradientUnits="userSpaceOnUse"
       id="radialGradient5985"
       xlink:href="#linearGradient6001"
       inkscape:collect="always" />
    <radialGradient
       r="2.8510637"
       fy="14.425532"
       fx="25.148935"
       cy="14.425532"
       cx="25.148935"
       gradientUnits="userSpaceOnUse"
       id="radialGradient5981"
       xlink:href="#linearGradient6001"
       inkscape:collect="always" />
    <radialGradient
       gradientUnits="userSpaceOnUse"
       r="2.8510637"
       fy="14.425532"
       fx="25.148935"
       cy="14.425532"
       cx="25.148935"
       id="radialGradient5977"
       xlink:href="#linearGradient6001"
       inkscape:collect="always" />
    <linearGradient
       y2="21.336346"
       x2="-21.962101"
       y1="15.649428"
       x1="-21.658581"
       gradientUnits="userSpaceOnUse"
       id="linearGradient5094"
       xlink:href="#linearGradient6001"
       inkscape:collect="always" />
    <linearGradient
       y2="22.661524"
       x2="-22.113543"
       y1="28.337734"
       x1="-22.822565"
       gradientUnits="userSpaceOnUse"
       id="linearGradient5092"
       xlink:href="#linearGradient6001"
       inkscape:collect="always" />
    <linearGradient
       y2="22.661524"
       x2="-22.113543"
       y1="30.057165"
       x1="-25.176178"
       gradientUnits="userSpaceOnUse"
       id="linearGradient5090"
       xlink:href="#linearGradient6001"
       inkscape:collect="always" />
    <linearGradient
       y2="21.041553"
       x2="-22.252472"
       y1="30.057165"
       x1="-25.176178"
       gradientUnits="userSpaceOnUse"
       id="linearGradient5088"
       xlink:href="#linearGradient6001"
       inkscape:collect="always" />
    <linearGradient
       inkscape:collect="always"
       id="linearGradient6001">
      <stop
         style="stop-color:#ffffff;stop-opacity:1;"
         offset="0"
         id="stop6003" />
      <stop
         style="stop-color:#ffffff;stop-opacity:0;"
         offset="1"
         id="stop6005" />
    </linearGradient>
    <radialGradient
       r="56.442806"
       fy="119.52609"
       fx="64.841805"
       cy="119.52609"
       cx="64.841805"
       gradientTransform="matrix(0.224024,0,0,0.247884,5.94701,11.11514)"
       gradientUnits="userSpaceOnUse"
       id="radialGradient3949"
       xlink:href="#linearGradient6001"
       inkscape:collect="always" />
    <linearGradient
       gradientUnits="userSpaceOnUse"
       y2="121.82737"
       x2="59.64286"
       y1="14.832381"
       x1="59.64286"
       id="linearGradient4212"
       xlink:href="#linearGradient6001"
       inkscape:collect="always" />
    <linearGradient
       gradientUnits="userSpaceOnUse"
       y2="21.705061"
       x2="83.525612"
       y1="367.82727"
       x1="29.183714"
       id="linearGradient6540"
       xlink:href="#linearGradient6519-443"
       inkscape:collect="always" />
    <radialGradient
       gradientUnits="userSpaceOnUse"
       gradientTransform="matrix(0.91358,2.206993e-7,-4.100829e-8,0.169753,4.848958,95.59596)"
       r="54.105412"
       fy="136.4689"
       fx="56.109314"
       cy="115.14162"
       cx="56.109314"
       id="radialGradient6525"
       xlink:href="#linearGradient6519-443"
       inkscape:collect="always" />
    <linearGradient
       gradientTransform="matrix(0.335523,0,0,0.384514,-1.398007,-1.994427)"
       y2="69.195572"
       x2="67.070114"
       y1="-18.184502"
       x1="70.848709"
       gradientUnits="userSpaceOnUse"
       id="linearGradient5063"
       xlink:href="#linearGradient6001"
       inkscape:collect="always" />
    <radialGradient
       gradientTransform="matrix(1.119035,0,0,1.119035,-6.268888,-7.140347)"
       r="56.442806"
       fy="59.985241"
       fx="52.664207"
       cy="59.985241"
       cx="52.664207"
       gradientUnits="userSpaceOnUse"
       id="radialGradient5059"
       xlink:href="#linearGradient2087"
       inkscape:collect="always" />
    <linearGradient
       id="linearGradient2087">
      <stop
         id="stop2089"
         offset="0"
         style="stop-color:#5ab9ff;stop-opacity:1;" />
      <stop
         style="stop-color:#007be4;stop-opacity:1;"
         offset="0.0000000"
         id="stop2816" />
      <stop
         id="stop2818"
         offset="0.75"
         style="stop-color:#005eb5;stop-opacity:1;" />
      <stop
         id="stop2091"
         offset="1"
         style="stop-color:#004d9b;stop-opacity:1;" />
    </linearGradient>
    <inkscape:perspective
       id="perspective63"
       inkscape:persp3d-origin="24 : 16 : 1"
       inkscape:vp_z="48 : 24 : 1"
       inkscape:vp_y="0 : 1000 : 0"
       inkscape:vp_x="0 : 24 : 1"
       sodipodi:type="inkscape:persp3d" />
    <linearGradient
       id="linearGradient6616-222">
      <stop
         id="stop2871"
         offset="0"
         style="stop-color:#d7d7d7;stop-opacity:1" />
      <stop
         style="stop-color:#f4fafa;stop-opacity:1;"
         offset="0.5"
         id="stop2873" />
      <stop
         id="stop2875"
         offset="1"
         style="stop-color:#b9b9b9;stop-opacity:1" />
    </linearGradient>
    <radialGradient
       gradientUnits="userSpaceOnUse"
       gradientTransform="matrix(1,0,0,0.20316,0,31.53451)"
       r="18.851065"
       fy="39.574505"
       fx="31.995186"
       cy="39.574505"
       cx="21.063829"
       id="radialGradient11029"
       xlink:href="#linearGradient6519-443"
       inkscape:collect="always" />
    <linearGradient
       gradientUnits="userSpaceOnUse"
       y2="47.543079"
       x2="2.9389012"
       y1="47.690941"
       x1="-2.8051319"
       id="linearGradient8396"
       xlink:href="#linearGradient6001"
       inkscape:collect="always" />
    <linearGradient
       gradientUnits="userSpaceOnUse"
       y2="20.220041"
       x2="17.101486"
       y1="12.707033"
       x1="12.713195"
       id="linearGradient6640"
       xlink:href="#linearGradient6001"
       inkscape:collect="always" />
    <linearGradient
       gradientUnits="userSpaceOnUse"
       y2="34.297035"
       x2="26.080227"
       y1="14.441965"
       x1="26.080227"
       id="linearGradient6622"
       xlink:href="#linearGradient6616"
       inkscape:collect="always" />
    <linearGradient
       gradientUnits="userSpaceOnUse"
       y2="24.660795"
       x2="22.102245"
       y1="21.501871"
       x1="26.778168"
       id="linearGradient6614"
       xlink:href="#linearGradient6001"
       inkscape:collect="always" />
    <linearGradient
       id="linearGradient6616">
      <stop
         id="stop6618"
         offset="0"
         style="stop-color:#d0d0d0;stop-opacity:1" />
      <stop
         style="stop-color:#fdfdfd;stop-opacity:1;"
         offset="0.5"
         id="stop9271" />
      <stop
         id="stop6620"
         offset="1"
         style="stop-color:#b9b9b9;stop-opacity:1" />
    </linearGradient>
    <inkscape:perspective
       id="perspective33"
       inkscape:persp3d-origin="24 : 16 : 1"
       inkscape:vp_z="48 : 24 : 1"
       inkscape:vp_y="0 : 1000 : 0"
       inkscape:vp_x="0 : 24 : 1"
       sodipodi:type="inkscape:persp3d" />
    <linearGradient
       y2="69.195572"
       x2="67.070114"
       y1="-18.184502"
       x1="70.848709"
       gradientTransform="matrix(0.7809739,0,0,0.8950069,85.807387,936.52484)"
       gradientUnits="userSpaceOnUse"
       id="linearGradient3327"
       xlink:href="#linearGradient5971-406"
       inkscape:collect="always" />
    <radialGradient
       r="56.442806"
       fy="119.52609"
       fx="64.841805"
       cy="119.52609"
       cx="64.841805"
       gradientTransform="matrix(0.52144532,0,0,0.57698261,102.90388,967.03908)"
       gradientUnits="userSpaceOnUse"
       id="radialGradient3330"
       xlink:href="#linearGradient5971-406"
       inkscape:collect="always" />
    <linearGradient
       y2="22.25"
       x2="98.625023"
       y1="46.334446"
       x1="98.625023"
       gradientTransform="matrix(0.375865,0,0,0.381806,-3.569721,-0.741231)"
       gradientUnits="userSpaceOnUse"
       id="linearGradient4121-376"
       xlink:href="#linearGradient6519-443"
       inkscape:collect="always" />
    <radialGradient
       inkscape:collect="always"
       xlink:href="#linearGradient6519-443"
       id="radialGradient3642-537"
       gradientUnits="userSpaceOnUse"
       gradientTransform="matrix(1,0,0,0.199052,0,92.109)"
       cx="61.750000"
       cy="115.00000"
       fx="61.750000"
       fy="115.00000"
       r="52.750000" />
    <radialGradient
       r="45.483642"
       fy="50.161213"
       fx="25.749996"
       cy="50.161213"
       cx="25.749996"
       gradientTransform="matrix(0.381806,0,0,0.432309,-0.203003,-3.3361)"
       gradientUnits="userSpaceOnUse"
       id="radialGradient4108-847"
       xlink:href="#linearGradient5971-406"
       inkscape:collect="always" />
    <linearGradient
       gradientTransform="matrix(0.397728,0,0,0.386138,-1.068184,-0.678219)"
       y2="96.052254"
       x2="83.661568"
       y1="46.5"
       x1="17"
       gradientUnits="userSpaceOnUse"
       id="linearGradient4105-543"
       xlink:href="#linearGradient5971-406"
       inkscape:collect="always" />
    <radialGradient
       inkscape:collect="always"
       xlink:href="#linearGradient6519-443"
       id="radialGradient3638-388"
       cx="61.750000"
       cy="115.00000"
       fx="61.750000"
       fy="115.00000"
       r="52.750000"
       gradientTransform="matrix(1,0,0,0.199052,0,92.109)"
       gradientUnits="userSpaceOnUse" />
    <linearGradient
       id="linearGradient5021-323"
       inkscape:collect="always">
      <stop
         id="stop3006"
         offset="0"
         style="stop-color:#e3ffb5;stop-opacity:1" />
      <stop
         id="stop3008"
         offset="1"
         style="stop-color:#289800;stop-opacity:1" />
    </linearGradient>
    <radialGradient
       gradientUnits="userSpaceOnUse"
       gradientTransform="matrix(1,0,0,1.416667,0,-27.39583)"
       r="3"
       fy="64.321823"
       fx="109"
       cy="65.75"
       cx="109"
       id="radialGradient5027-708"
       xlink:href="#linearGradient5021-323"
       inkscape:collect="always" />
    <linearGradient
       y2="36.552097"
       x2="103.24915"
       y1="61.550186"
       x1="103.24915"
       gradientTransform="matrix(0.374593,0,0,0.381806,-3.467853,-0.716404)"
       gradientUnits="userSpaceOnUse"
       id="linearGradient4118-813"
       xlink:href="#linearGradient6519-443"
       inkscape:collect="always" />
    <linearGradient
       y2="68.625000"
       x2="76.000000"
       y1="68.625000"
       x1="132.25000"
       gradientTransform="matrix(0.399813,0,0,0.384616,-5.784697,-1.346153)"
       gradientUnits="userSpaceOnUse"
       id="linearGradient4124-842"
       xlink:href="#linearGradient6519-443"
       inkscape:collect="always" />
    <linearGradient
       gradientTransform="matrix(0.381806,0,0,0.381806,-0.203003,0.02238051)"
       y2="104.75000"
       x2="112.50000"
       y1="128.50000"
       x1="103.09375"
       gradientUnits="userSpaceOnUse"
       id="linearGradient4128-13"
       xlink:href="#linearGradient6519-443"
       inkscape:collect="always" />
    <linearGradient
       gradientTransform="matrix(0.381806,0,0,0.381806,-0.608226,-0.440536)"
       y2="117.00493"
       x2="70"
       y1="15.494845"
       x1="70"
       gradientUnits="userSpaceOnUse"
       id="linearGradient4102-377"
       xlink:href="#linearGradient5971-406"
       inkscape:collect="always" />
    <radialGradient
       gradientUnits="userSpaceOnUse"
       gradientTransform="matrix(1,0,0,1.416667,0,-27.39583)"
       r="3"
       fy="64.321823"
       fx="109"
       cy="65.75"
       cx="109"
       id="radialGradient5027"
       xlink:href="#linearGradient5021"
       inkscape:collect="always" />
    <radialGradient
       r="45.483642"
       fy="50.161213"
       fx="25.749996"
       cy="50.161213"
       cx="25.749996"
       gradientTransform="matrix(0.381806,0,0,0.432309,-0.203003,-3.3361)"
       gradientUnits="userSpaceOnUse"
       id="radialGradient4108"
       xlink:href="#linearGradient6001"
       inkscape:collect="always" />
    <linearGradient
       gradientTransform="matrix(0.397728,0,0,0.386138,-1.068184,-0.678219)"
       y2="96.052254"
       x2="83.661568"
       y1="46.5"
       x1="17"
       gradientUnits="userSpaceOnUse"
       id="linearGradient4105"
       xlink:href="#linearGradient6001"
       inkscape:collect="always" />
    <linearGradient
       gradientTransform="matrix(0.381806,0,0,0.381806,-0.608226,-0.440536)"
       y2="117.00493"
       x2="70"
       y1="15.494845"
       x1="70"
       gradientUnits="userSpaceOnUse"
       id="linearGradient4102"
       xlink:href="#linearGradient6001"
       inkscape:collect="always" />
    <linearGradient
       id="linearGradient7555">
      <stop
         id="stop7557"
         offset="0.0000000"
         style="stop-color:#2e2e2e;stop-opacity:0.46875000;" />
      <stop
         id="stop7559"
         offset="1"
         style="stop-color:#2e2e2e;stop-opacity:0;" />
    </linearGradient>
    <linearGradient
       id="linearGradient3057">
      <stop
         style="stop-color:#000000;stop-opacity:0.19191919;"
         offset="0.0000000"
         id="stop3058" />
      <stop
         style="stop-color:#000000;stop-opacity:0.14141414;"
         offset="0.34210527"
         id="stop3059" />
      <stop
         style="stop-color:#ffffff;stop-opacity:0.0000000;"
         offset="1.0000000"
         id="stop3060" />
    </linearGradient>
    <linearGradient
       gradientUnits="userSpaceOnUse"
       y2="72.250000"
       x2="45.656250"
       y1="72.250000"
       x1="6.3437500"
       id="linearGradient5989"
       xlink:href="#linearGradient6001"
       inkscape:collect="always" />
    <linearGradient
       gradientUnits="userSpaceOnUse"
       y2="75.246735"
       x2="39.812500"
       y1="71.043076"
       x1="39.812500"
       id="linearGradient7535"
       xlink:href="#linearGradient6001"
       inkscape:collect="always" />
    <radialGradient
       gradientUnits="userSpaceOnUse"
       gradientTransform="matrix(1.000000,0.000000,0.000000,0.217391,0.000000,95.67391)"
       r="40.250000"
       fy="99.249969"
       fx="24.250000"
       cy="99.249969"
       cx="24.250000"
       id="radialGradient7561"
       xlink:href="#linearGradient7555"
       inkscape:collect="always" />
    <radialGradient
       inkscape:collect="always"
       xlink:href="#linearGradient6519-443"
       id="radialGradient3638"
       cx="61.750000"
       cy="115.00000"
       fx="61.750000"
       fy="115.00000"
       r="52.750000"
       gradientTransform="matrix(1,1.843144e-18,3.237191e-19,0.199052,-2.760905e-14,92.109)"
       gradientUnits="userSpaceOnUse" />
    <radialGradient
       inkscape:collect="always"
       xlink:href="#linearGradient6519-443"
       id="radialGradient3642"
       gradientUnits="userSpaceOnUse"
       gradientTransform="matrix(1,1.652051e-17,-5.63136e-18,0.199052,1.285083e-13,92.109)"
       cx="61.750000"
       cy="115.00000"
       fx="61.750000"
       fy="115.00000"
       r="52.750000" />
    <linearGradient
       id="linearGradient5021"
       inkscape:collect="always">
      <stop
         id="stop5023"
         offset="0"
         style="stop-color:#a8ffbe;stop-opacity:1" />
      <stop
         id="stop5025"
         offset="1"
         style="stop-color:#00bf2d;stop-opacity:1" />
    </linearGradient>
    <inkscape:perspective
       id="perspective101"
       inkscape:persp3d-origin="24 : 16 : 1"
       inkscape:vp_z="48 : 24 : 1"
       inkscape:vp_y="0 : 1000 : 0"
       inkscape:vp_x="0 : 24 : 1"
       sodipodi:type="inkscape:persp3d" />
    <radialGradient
       r="56.442806"
       fy="119.52609"
       fx="64.841805"
       cy="119.52609"
       cx="64.841805"
       gradientTransform="matrix(0.52144532,0,0,0.57698261,133.20846,968.04923)"
       gradientUnits="userSpaceOnUse"
       id="radialGradient3664"
       xlink:href="#linearGradient5971-406"
       inkscape:collect="always" />
    <linearGradient
       id="linearGradient4570"
       inkscape:collect="always">
      <stop
         id="stop4572"
         offset="0"
         style="stop-color:#000000;stop-opacity:1" />
      <stop
         style="stop-color:#eceeee;stop-opacity:1"
         offset="0.48907515"
         id="stop4386" />
      <stop
         id="stop4574"
         offset="1"
         style="stop-color:#000000;stop-opacity:1" />
    </linearGradient>
    <linearGradient
       y2="117.87297"
       x2="123.11584"
       y1="94.747581"
       x1="123.11584"
       gradientTransform="matrix(1,0,0,5.7633778,0,-548.53406)"
       gradientUnits="userSpaceOnUse"
       id="linearGradient4398"
       xlink:href="#linearGradient4570"
       inkscape:collect="always" />
    <mask
       id="mask4394"
       maskUnits="userSpaceOnUse">
      <rect
         y="-1.6295104"
         x="-2.6787365e-07"
         height="179.71468"
         width="419.88416"
         id="rect4396"
         style="color:#000000;display:inline;overflow:visible;visibility:visible;opacity:1;fill:url(#linearGradient4398);fill-opacity:1;fill-rule:nonzero;stroke:none;stroke-width:5;stroke-linecap:round;stroke-linejoin:round;stroke-miterlimit:4;stroke-dasharray:none;stroke-opacity:1;marker:none;enable-background:accumulate" />
    </mask>
    <linearGradient
       inkscape:collect="always"
       xlink:href="#rect3438-6-0-1-1_60_-761"
       id="linearGradient4273"
       x1="13.098583"
       y1="70.000191"
       x2="144.10556"
       y2="70.000191"
       gradientUnits="userSpaceOnUse" />
    <linearGradient
       inkscape:collect="always"
       xlink:href="#rect3438-6-0-1-1_60_-761"
       id="linearGradient4275"
       gradientUnits="userSpaceOnUse"
       x1="13.098583"
       y1="70.000191"
       x2="144.10556"
       y2="70.000191" />
    <linearGradient
       inkscape:collect="always"
       xlink:href="#rect3438-6-0-1-1_60_-761"
       id="linearGradient4277"
       gradientUnits="userSpaceOnUse"
       x1="13.098583"
       y1="70.000191"
       x2="144.10556"
       y2="70.000191" />
    <linearGradient
       inkscape:collect="always"
       xlink:href="#rect3438-6-0-1-1_60_-761"
       id="linearGradient4279"
       gradientUnits="userSpaceOnUse"
       x1="13.098583"
       y1="70.000191"
       x2="144.10556"
       y2="70.000191" />
    <linearGradient
       inkscape:collect="always"
       xlink:href="#rect3438-6-0-1-1_60_-761"
       id="linearGradient4281"
       gradientUnits="userSpaceOnUse"
       x1="13.098583"
       y1="70.000191"
       x2="144.10556"
       y2="70.000191" />
  </defs>
  <sodipodi:namedview
     id="base"
     pagecolor="#ffffff"
     bordercolor="#666666"
     borderopacity="1.0"
     inkscape:pageopacity="0.0"
     inkscape:pageshadow="2"
     inkscape:zoom="1.4"
     inkscape:cx="-6.0029835"
     inkscape:cy="72.881334"
     inkscape:document-units="px"
     inkscape:current-layer="svg2"
     showgrid="false"
     units="px"
     showguides="true"
     inkscape:guide-bbox="true"
     inkscape:snap-intersection-paths="false"
     inkscape:snap-midpoints="true"
     inkscape:window-width="1920"
     inkscape:window-height="897"
     inkscape:window-x="0"
     inkscape:window-y="36"
     inkscape:window-maximized="1">
    <sodipodi:guide
       position="128.92857,237.85714"
       orientation="0,1"
       id="guide4147"
       inkscape:locked="false" />
    <sodipodi:guide
       position="18.214286,162.14286"
       orientation="1,0"
       id="guide4149"
       inkscape:locked="false" />
    <sodipodi:guide
       position="237.85714,66.785714"
       orientation="1,0"
       id="guide4151"
       inkscape:locked="false" />
    <sodipodi:guide
       position="198.21429,17.5"
       orientation="0,1"
       id="guide4153"
       inkscape:locked="false" />
  </sodipodi:namedview>
  <metadata
     id="metadata7">
    <rdf:RDF>
      <cc:Work
         rdf:about="">
        <dc:format>image/svg+xml</dc:format>
        <dc:type
           rdf:resource="http://purl.org/dc/dcmitype/StillImage" />
        <dc:title />
      </cc:Work>
    </rdf:RDF>
  </metadata>
  <g
     inkscape:label="Capa 1"
     inkscape:groupmode="layer"
     id="layer1"
     transform="translate(0,-796.36216)" />
  <g
     id="g6564"
     transform="matrix(1.2573695,0,0,1.2573695,657.70231,78.808634)">
    <g
       transform="matrix(0.36866655,0,0,0.36838481,18.328775,29.212993)"
       id="Logo">
      <g
         transform="matrix(3.4431732,0,0,3.4431732,-1463.0648,-199.18578)"
         id="Logo_Symbol-1"
         style="opacity:0.2;fill:url(#linearGradient4273);fill-opacity:1">
        <path
           style="fill:url(#linearGradient4275);fill-opacity:1"
           inkscape:connector-curvature="0"
           id="path95-2"
           d="m 114.946,15.547 -7.753,12.855 c 8.389,5.748 15.13,14.063 18.865,24.329 9.521,26.168 -4.022,55.202 -30.19,64.724 -26.167,9.521 -55.202,-4.022 -64.722,-30.192 -7.922,-21.772 0.133,-45.52 18.135,-58.369 l -5.28,-14.511 c -25.74,16.005 -37.718,48.419 -26.952,78.01 12.349,33.939 50.008,51.506 83.948,39.158 33.94,-12.35 51.506,-50.01 39.157,-83.949 -4.953,-13.614 -13.985,-24.583 -25.208,-32.055 z" />
        <path
           style="fill:url(#linearGradient4277);fill-opacity:1"
           inkscape:connector-curvature="0"
           id="path97-9"
           d="M 59.488,56.95 53.711,41.072 c -11.663,10.06 -16.546,26.664 -10.976,41.976 7.195,19.777 29.139,30.012 48.917,22.817 19.777,-7.196 30.013,-29.141 22.816,-48.918 -2.732,-7.511 -7.596,-13.641 -13.655,-17.967 l -7.782,12.903 c 3.237,2.569 5.828,6.031 7.342,10.192 C 104.741,74.08 98.528,87.4 86.523,91.767 74.52,96.135 61.2,89.921 56.832,77.916 54.185,70.648 55.434,62.903 59.488,56.95 Z" />
        <path
           style="fill:url(#linearGradient4279);fill-opacity:1"
           inkscape:connector-curvature="0"
           id="path99-3"
           d="m 81.166,77.046 c 3.893,-1.416 5.9,-5.72 4.484,-9.612 L 78.157,46.841 c 3.38,-0.062 6.69,0.637 9.724,1.963 L 95.67,35.892 c -9.056,-4.528 -19.875,-5.487 -30.118,-1.76 -2.412,0.877 -4.68,1.978 -6.793,3.263 l 12.795,35.168 c 1.416,3.892 5.72,5.899 9.612,4.483 z" />
        <path
           style="fill:url(#linearGradient4281);fill-opacity:1"
           inkscape:connector-curvature="0"
           id="path101-9"
           d="m 71.987,29.88 -3.412,-9.377 c 11.633,-2.364 23.417,-0.46 33.474,4.81 l 7.755,-12.856 C 93.889,3.839 74.51,1.786 56.206,8.445 53.821,9.313 51.527,10.317 49.31,11.424 l 8.581,23.584 c 2.13,-1.26 4.398,-2.35 6.807,-3.227 2.409,-0.877 4.846,-1.498 7.289,-1.901 z" />
      </g>
      <g
         transform="matrix(3.4431732,0,0,3.4431732,-1463.0648,-205.97214)"
         id="Logo_Symbol-1-0"
         style="opacity:0.25;fill:#000000;fill-opacity:1">
        <path
           style="fill:#000000;fill-opacity:1"
           inkscape:connector-curvature="0"
           id="path95-2-8"
           d="m 114.946,15.547 -7.753,12.855 c 8.389,5.748 15.13,14.063 18.865,24.329 9.521,26.168 -4.022,55.202 -30.19,64.724 -26.167,9.521 -55.202,-4.022 -64.722,-30.192 -7.922,-21.772 0.133,-45.52 18.135,-58.369 l -5.28,-14.511 c -25.74,16.005 -37.718,48.419 -26.952,78.01 12.349,33.939 50.008,51.506 83.948,39.158 33.94,-12.35 51.506,-50.01 39.157,-83.949 -4.953,-13.614 -13.985,-24.583 -25.208,-32.055 z" />
        <path
           style="fill:#000000;fill-opacity:1"
           inkscape:connector-curvature="0"
           id="path97-9-8"
           d="M 59.488,56.95 53.711,41.072 c -11.663,10.06 -16.546,26.664 -10.976,41.976 7.195,19.777 29.139,30.012 48.917,22.817 19.777,-7.196 30.013,-29.141 22.816,-48.918 -2.732,-7.511 -7.596,-13.641 -13.655,-17.967 l -7.782,12.903 c 3.237,2.569 5.828,6.031 7.342,10.192 C 104.741,74.08 98.528,87.4 86.523,91.767 74.52,96.135 61.2,89.921 56.832,77.916 54.185,70.648 55.434,62.903 59.488,56.95 Z" />
        <path
           style="fill:#000000;fill-opacity:1"
           inkscape:connector-curvature="0"
           id="path99-3-5"
           d="m 81.166,77.046 c 3.893,-1.416 5.9,-5.72 4.484,-9.612 L 78.157,46.841 c 3.38,-0.062 6.69,0.637 9.724,1.963 L 95.67,35.892 c -9.056,-4.528 -19.875,-5.487 -30.118,-1.76 -2.412,0.877 -4.68,1.978 -6.793,3.263 l 12.795,35.168 c 1.416,3.892 5.72,5.899 9.612,4.483 z" />
        <path
           style="fill:#000000;fill-opacity:1"
           inkscape:connector-curvature="0"
           id="path101-9-0"
           d="m 71.987,29.88 -3.412,-9.377 c 11.633,-2.364 23.417,-0.46 33.474,4.81 l 7.755,-12.856 C 93.889,3.839 74.51,1.786 56.206,8.445 53.821,9.313 51.527,10.317 49.31,11.424 l 8.581,23.584 c 2.13,-1.26 4.398,-2.35 6.807,-3.227 2.409,-0.877 4.846,-1.498 7.289,-1.901 z" />
      </g>
      <g
         transform="matrix(3.4431732,0,0,3.4431732,-1463.0648,-211.78902)"
         id="Logo_Symbol">
        <path
           style="fill:#004d95"
           inkscape:connector-curvature="0"
           id="path95"
           d="m 114.946,15.547 -7.753,12.855 c 8.389,5.748 15.13,14.063 18.865,24.329 9.521,26.168 -4.022,55.202 -30.19,64.724 -26.167,9.521 -55.202,-4.022 -64.722,-30.192 -7.922,-21.772 0.133,-45.52 18.135,-58.369 l -5.28,-14.511 c -25.74,16.005 -37.718,48.419 -26.952,78.01 12.349,33.939 50.008,51.506 83.948,39.158 33.94,-12.35 51.506,-50.01 39.157,-83.949 -4.953,-13.614 -13.985,-24.583 -25.208,-32.055 z" />
        <path
           style="fill:#555555"
           inkscape:connector-curvature="0"
           id="path97"
           d="M 59.488,56.95 53.711,41.072 c -11.663,10.06 -16.546,26.664 -10.976,41.976 7.195,19.777 29.139,30.012 48.917,22.817 19.777,-7.196 30.013,-29.141 22.816,-48.918 -2.732,-7.511 -7.596,-13.641 -13.655,-17.967 l -7.782,12.903 c 3.237,2.569 5.828,6.031 7.342,10.192 C 104.741,74.08 98.528,87.4 86.523,91.767 74.52,96.135 61.2,89.921 56.832,77.916 54.185,70.648 55.434,62.903 59.488,56.95 Z" />
        <path
           style="fill:#004d95"
           inkscape:connector-curvature="0"
           id="path99"
           d="m 81.166,77.046 c 3.893,-1.416 5.9,-5.72 4.484,-9.612 L 78.157,46.841 c 3.38,-0.062 6.69,0.637 9.724,1.963 L 95.67,35.892 c -9.056,-4.528 -19.875,-5.487 -30.118,-1.76 -2.412,0.877 -4.68,1.978 -6.793,3.263 l 12.795,35.168 c 1.416,3.892 5.72,5.899 9.612,4.483 z" />
        <path
           style="fill:#555555"
           inkscape:connector-curvature="0"
           id="path101"
           d="m 71.987,29.88 -3.412,-9.377 c 11.633,-2.364 23.417,-0.46 33.474,4.81 l 7.755,-12.856 C 93.889,3.839 74.51,1.786 56.206,8.445 53.821,9.313 51.527,10.317 49.31,11.424 l 8.581,23.584 c 2.13,-1.26 4.398,-2.35 6.807,-3.227 2.409,-0.877 4.846,-1.498 7.289,-1.901 z" />
      </g>
    </g>
  </g>
</svg>
