<?xml version="1.0" encoding="UTF-8" standalone="no"?>
<!-- Created with Inkscape (http://www.inkscape.org/) -->

<svg
   xmlns:dc="http://purl.org/dc/elements/1.1/"
   xmlns:cc="http://creativecommons.org/ns#"
   xmlns:rdf="http://www.w3.org/1999/02/22-rdf-syntax-ns#"
   xmlns:svg="http://www.w3.org/2000/svg"
   xmlns="http://www.w3.org/2000/svg"
   xmlns:xlink="http://www.w3.org/1999/xlink"
   xmlns:sodipodi="http://sodipodi.sourceforge.net/DTD/sodipodi-0.dtd"
   xmlns:inkscape="http://www.inkscape.org/namespaces/inkscape"
   width="700"
   height="170"
   viewBox="0 0 185.20833 44.97917"
   version="1.1"
   id="svg5421"
   inkscape:version="0.92.1 unknown"
   sodipodi:docname="Freeradius_logo.svg"
   inkscape:export-filename="/home/cless/python/freeradius/Freeradius_logo.png"
   inkscape:export-xdpi="96"
   inkscape:export-ydpi="96">
  <defs
     id="defs5415">
    <linearGradient
       id="linearGradient4525"
       inkscape:collect="always">
      <stop
         id="stop4527"
         offset="0"
         style="stop-color:#2f689e;stop-opacity:1" />
      <stop
         id="stop4529"
         offset="1"
         style="stop-color:#3a73a4;stop-opacity:1" />
    </linearGradient>
    <linearGradient
       inkscape:collect="always"
       xlink:href="#linearGradient5187"
       id="linearGradient5181"
       x1="1303.2274"
       y1="139.90341"
       x2="1299.2114"
       y2="379.88907"
       gradientUnits="userSpaceOnUse"
       gradientTransform="matrix(0.55665897,0,0,0.70443303,-163.4997,-106.65876)" />
    <linearGradient
       inkscape:collect="always"
       id="linearGradient5187">
      <stop
         style="stop-color:#000000;stop-opacity:0.73851591"
         offset="0"
         id="stop5183" />
      <stop
         style="stop-color:#000000;stop-opacity:0"
         offset="1"
         id="stop5185" />
    </linearGradient>
    <filter
       inkscape:collect="always"
       style="color-interpolation-filters:sRGB"
       id="filter5270"
       x="-0.008274843"
       width="1.0165497"
       y="-0.021825269"
       height="1.0436505">
      <feGaussianBlur
         inkscape:collect="always"
         stdDeviation="1.4998285"
         id="feGaussianBlur5272" />
    </filter>
    <linearGradient
       gradientTransform="matrix(0.35905876,0,0,0.44104083,-140.57757,-5.4946756)"
       gradientUnits="userSpaceOnUse"
       y2="100.80693"
       x2="82.79406"
       y1="80.377228"
       x1="82.79406"
       id="linearGradient4531-7-3"
       xlink:href="#linearGradient4525"
       inkscape:collect="always" />
  </defs>
  <sodipodi:namedview
     id="base"
     pagecolor="#ffffff"
     bordercolor="#666666"
     borderopacity="1.0"
     inkscape:pageopacity="0.0"
     inkscape:pageshadow="2"
     inkscape:zoom="1.4142136"
     inkscape:cx="433.37904"
     inkscape:cy="171.50909"
     inkscape:document-units="mm"
     inkscape:current-layer="layer1"
     showgrid="false"
     fit-margin-top="0"
     fit-margin-left="0"
     fit-margin-right="0"
     fit-margin-bottom="0"
     borderlayer="true"
     units="px"
     inkscape:measure-start="152.5,180.179"
     inkscape:measure-end="152.5,153.214"
     showguides="true"
     inkscape:guide-bbox="true"
     inkscape:snap-nodes="false"
     inkscape:window-width="1920"
     inkscape:window-height="1031"
     inkscape:window-x="1920"
     inkscape:window-y="0"
     inkscape:window-maximized="1"
     inkscape:snap-intersection-paths="true" />
  <metadata
     id="metadata5418">
    <rdf:RDF>
      <cc:Work
         rdf:about="">
        <dc:format>image/svg+xml</dc:format>
        <dc:type
           rdf:resource="http://purl.org/dc/dcmitype/StillImage" />
        <dc:title></dc:title>
      </cc:Work>
    </rdf:RDF>
  </metadata>
  <g
     inkscape:label="Capa 1"
     inkscape:groupmode="layer"
     id="layer1"
     transform="translate(133.07027,-71.73272)">
    <rect
       style="color:#000000;clip-rule:nonzero;display:inline;overflow:visible;visibility:visible;opacity:1;isolation:auto;mix-blend-mode:normal;color-interpolation:sRGB;color-interpolation-filters:linearRGB;solid-color:#000000;solid-opacity:1;fill:url(#linearGradient5181);fill-opacity:1;fill-rule:nonzero;stroke:none;stroke-width:0.50738412;stroke-linecap:square;stroke-linejoin:bevel;stroke-miterlimit:4;stroke-dasharray:none;stroke-dashoffset:0;stroke-opacity:1;paint-order:markers stroke fill;filter:url(#filter5270);color-rendering:auto;image-rendering:auto;shape-rendering:auto;text-rendering:auto;enable-background:accumulate"
       id="rect4818-2"
       width="435.00385"
       height="164.92757"
       x="352.43808"
       y="-8.1469669"
       transform="matrix(0.41843643,0,0,0.2828901,-278.97504,69.100314)" />
    <rect
       style="color:#000000;display:inline;overflow:visible;visibility:visible;opacity:1;fill:#ffffff;fill-opacity:1;fill-rule:nonzero;stroke:none;stroke-width:1.87716508;stroke-linecap:round;stroke-linejoin:round;stroke-miterlimit:4;stroke-dasharray:none;stroke-opacity:1;marker:none;enable-background:accumulate"
       id="rect4768-9"
       width="179.69647"
       height="45.457882"
       x="-130.37317"
       y="71.301155" />
    <g
       id="Logo-7"
       transform="matrix(0.1654561,0,0,0.16532965,-85.967387,77.59108)">
      <g
         id="Tagline-0">
        <path
           d="m 171.007,93.262 h 9.248 v 1.728 h -3.632 v 9.696 h -2 V 94.99 h -3.616 z"
           id="path5-9"
           inkscape:connector-curvature="0"
           style="fill:#555555" />
        <path
           d="m 181.967,93.262 h 1.824 v 4.24 h 0.032 c 0.224,-0.374 0.557,-0.686 1,-0.937 0.442,-0.25 0.936,-0.376 1.48,-0.376 0.907,0 1.622,0.234 2.144,0.704 0.522,0.47 0.784,1.174 0.784,2.112 v 5.68 h -1.824 v -5.2 c -0.021,-0.65 -0.16,-1.122 -0.416,-1.416 -0.256,-0.293 -0.656,-0.439 -1.2,-0.439 -0.31,0 -0.587,0.056 -0.832,0.168 -0.246,0.111 -0.454,0.267 -0.624,0.464 -0.171,0.197 -0.304,0.43 -0.4,0.696 -0.096,0.267 -0.144,0.549 -0.144,0.848 v 4.88 h -1.824 z"
           id="path7-3"
           inkscape:connector-curvature="0"
           style="fill:#555555" />
        <path
           d="m 193.214,101.021 c 0,0.32 0.045,0.63 0.136,0.928 0.09,0.299 0.227,0.561 0.408,0.784 0.181,0.225 0.41,0.403 0.688,0.536 0.277,0.134 0.608,0.2 0.992,0.2 0.533,0 0.962,-0.114 1.288,-0.344 0.325,-0.229 0.568,-0.573 0.728,-1.032 h 1.728 c -0.096,0.448 -0.262,0.848 -0.496,1.2 -0.235,0.352 -0.518,0.647 -0.848,0.888 -0.33,0.241 -0.701,0.422 -1.112,0.544 -0.411,0.122 -0.84,0.184 -1.288,0.184 -0.651,0 -1.227,-0.106 -1.728,-0.319 -0.501,-0.214 -0.925,-0.513 -1.272,-0.896 -0.347,-0.383 -0.608,-0.843 -0.784,-1.376 -0.176,-0.533 -0.264,-1.12 -0.264,-1.76 0,-0.587 0.093,-1.145 0.28,-1.672 0.187,-0.528 0.454,-0.992 0.8,-1.393 0.346,-0.399 0.765,-0.717 1.256,-0.951 0.491,-0.235 1.045,-0.353 1.664,-0.353 0.65,0 1.234,0.136 1.752,0.408 0.517,0.271 0.946,0.632 1.288,1.08 0.341,0.448 0.589,0.963 0.744,1.544 0.154,0.581 0.194,1.182 0.12,1.8 z m 4.257,-1.2 c -0.021,-0.288 -0.083,-0.565 -0.184,-0.832 -0.102,-0.267 -0.24,-0.498 -0.416,-0.695 -0.176,-0.197 -0.39,-0.357 -0.64,-0.48 -0.25,-0.122 -0.531,-0.184 -0.84,-0.184 -0.32,0 -0.611,0.056 -0.872,0.168 -0.262,0.111 -0.485,0.267 -0.672,0.464 -0.187,0.197 -0.336,0.43 -0.448,0.696 -0.112,0.267 -0.173,0.555 -0.184,0.863 z"
           id="path9-6"
           inkscape:connector-curvature="0"
           style="fill:#555555" />
        <path
           d="m 205.663,96.413 h 1.936 l 1.616,6.177 h 0.032 l 1.552,-6.177 h 1.84 l 1.488,6.177 h 0.032 l 1.68,-6.177 h 1.856 l -2.592,8.272 h -1.872 l -1.536,-6.144 h -0.032 l -1.52,6.144 h -1.92 z"
           id="path11-0"
           inkscape:connector-curvature="0"
           style="fill:#555555" />
        <path
           d="m 223.295,104.909 c -0.662,0 -1.25,-0.109 -1.768,-0.327 -0.518,-0.219 -0.955,-0.521 -1.312,-0.904 -0.357,-0.383 -0.629,-0.843 -0.816,-1.376 -0.187,-0.533 -0.28,-1.12 -0.28,-1.76 0,-0.63 0.093,-1.211 0.28,-1.744 0.187,-0.533 0.458,-0.992 0.816,-1.376 0.357,-0.385 0.794,-0.686 1.312,-0.904 0.518,-0.218 1.106,-0.328 1.768,-0.328 0.661,0 1.25,0.109 1.768,0.328 0.517,0.219 0.955,0.52 1.312,0.904 0.357,0.384 0.629,0.843 0.816,1.376 0.187,0.533 0.28,1.114 0.28,1.744 0,0.64 -0.094,1.227 -0.28,1.76 -0.186,0.533 -0.458,0.992 -0.816,1.376 -0.358,0.384 -0.795,0.686 -1.312,0.904 -0.518,0.218 -1.107,0.327 -1.768,0.327 z m 0,-1.439 c 0.405,0 0.757,-0.085 1.056,-0.256 0.298,-0.171 0.544,-0.395 0.736,-0.672 0.192,-0.277 0.333,-0.59 0.424,-0.937 0.091,-0.347 0.136,-0.701 0.136,-1.063 0,-0.353 -0.045,-0.704 -0.136,-1.057 -0.09,-0.352 -0.232,-0.664 -0.424,-0.936 -0.192,-0.272 -0.438,-0.493 -0.736,-0.664 -0.299,-0.171 -0.651,-0.256 -1.056,-0.256 -0.405,0 -0.757,0.085 -1.056,0.256 -0.298,0.171 -0.544,0.392 -0.736,0.664 -0.192,0.271 -0.333,0.584 -0.424,0.936 -0.091,0.353 -0.136,0.704 -0.136,1.057 0,0.362 0.045,0.717 0.136,1.063 0.09,0.347 0.232,0.659 0.424,0.937 0.192,0.278 0.438,0.501 0.736,0.672 0.299,0.171 0.651,0.256 1.056,0.256 z"
           id="path13-6"
           inkscape:connector-curvature="0"
           style="fill:#555555" />
        <path
           d="m 229.63,96.413 h 1.712 v 1.601 h 0.032 c 0.053,-0.225 0.157,-0.442 0.312,-0.656 0.154,-0.213 0.341,-0.408 0.56,-0.584 0.218,-0.176 0.461,-0.317 0.728,-0.424 0.266,-0.106 0.538,-0.16 0.816,-0.16 0.213,0 0.36,0.006 0.44,0.016 0.08,0.011 0.163,0.021 0.248,0.032 v 1.76 c -0.128,-0.021 -0.259,-0.039 -0.392,-0.056 -0.133,-0.016 -0.264,-0.023 -0.392,-0.023 -0.31,0 -0.6,0.062 -0.872,0.184 -0.272,0.123 -0.509,0.304 -0.712,0.544 -0.203,0.24 -0.363,0.536 -0.48,0.888 -0.118,0.353 -0.176,0.758 -0.176,1.217 v 3.936 h -1.824 z"
           id="path15-2"
           inkscape:connector-curvature="0"
           style="fill:#555555" />
        <path
           d="m 235.95,93.262 h 1.824 v 11.424 h -1.824 z"
           id="path17-6"
           inkscape:connector-curvature="0"
           style="fill:#555555" />
        <path
           d="m 248.19,104.686 h -1.728 v -1.12 h -0.032 c -0.246,0.48 -0.603,0.824 -1.072,1.032 -0.469,0.208 -0.965,0.312 -1.488,0.312 -0.651,0 -1.219,-0.114 -1.704,-0.344 -0.485,-0.23 -0.888,-0.541 -1.208,-0.936 -0.32,-0.395 -0.56,-0.861 -0.72,-1.4 -0.16,-0.538 -0.24,-1.117 -0.24,-1.736 0,-0.746 0.101,-1.392 0.304,-1.936 0.203,-0.544 0.472,-0.992 0.808,-1.344 0.336,-0.353 0.72,-0.61 1.152,-0.776 0.432,-0.165 0.872,-0.248 1.32,-0.248 0.256,0 0.517,0.024 0.784,0.072 0.266,0.048 0.522,0.125 0.768,0.231 0.246,0.107 0.472,0.243 0.68,0.408 0.208,0.166 0.381,0.36 0.52,0.584 h 0.032 v -4.224 h 1.824 z m -6.368,-4.048 c 0,0.352 0.045,0.698 0.136,1.04 0.09,0.342 0.229,0.646 0.416,0.912 0.187,0.267 0.424,0.479 0.712,0.64 0.288,0.161 0.629,0.24 1.024,0.24 0.405,0 0.754,-0.085 1.048,-0.256 0.293,-0.171 0.533,-0.395 0.72,-0.672 0.187,-0.277 0.325,-0.59 0.416,-0.937 0.09,-0.347 0.136,-0.701 0.136,-1.063 0,-0.918 -0.206,-1.633 -0.616,-2.145 -0.41,-0.512 -0.968,-0.768 -1.672,-0.768 -0.427,0 -0.787,0.088 -1.08,0.264 -0.293,0.176 -0.534,0.405 -0.72,0.688 -0.187,0.282 -0.32,0.603 -0.4,0.96 -0.08,0.357 -0.12,0.724 -0.12,1.097 z"
           id="path19-1"
           inkscape:connector-curvature="0"
           style="fill:#555555" />
        <path
           d="m 251.262,93.262 h 1.632 v 4.512 h -1.632 z"
           id="path21-8"
           inkscape:connector-curvature="0"
           style="fill:#555555" />
        <path
           d="m 257.278,102.029 c 0.053,0.534 0.256,0.907 0.608,1.12 0.352,0.214 0.773,0.32 1.264,0.32 0.17,0 0.365,-0.014 0.584,-0.04 0.219,-0.026 0.424,-0.077 0.616,-0.152 0.192,-0.074 0.349,-0.184 0.472,-0.328 0.123,-0.144 0.179,-0.333 0.168,-0.567 -0.011,-0.234 -0.096,-0.427 -0.256,-0.576 -0.16,-0.149 -0.366,-0.27 -0.616,-0.36 -0.25,-0.09 -0.536,-0.168 -0.856,-0.231 -0.32,-0.064 -0.646,-0.134 -0.976,-0.208 -0.342,-0.075 -0.67,-0.166 -0.984,-0.272 -0.314,-0.106 -0.597,-0.25 -0.848,-0.432 -0.251,-0.182 -0.451,-0.413 -0.6,-0.696 -0.149,-0.282 -0.224,-0.632 -0.224,-1.048 0,-0.448 0.109,-0.824 0.328,-1.128 0.218,-0.304 0.496,-0.55 0.832,-0.736 0.336,-0.186 0.709,-0.317 1.12,-0.392 0.411,-0.075 0.803,-0.112 1.176,-0.112 0.426,0 0.834,0.046 1.224,0.136 0.389,0.091 0.741,0.238 1.056,0.44 0.314,0.203 0.576,0.467 0.784,0.792 0.208,0.325 0.338,0.718 0.392,1.176 h -1.904 c -0.085,-0.438 -0.285,-0.73 -0.6,-0.88 -0.315,-0.149 -0.675,-0.224 -1.08,-0.224 -0.128,0 -0.28,0.011 -0.456,0.031 -0.176,0.021 -0.342,0.062 -0.496,0.12 -0.155,0.059 -0.286,0.145 -0.392,0.256 -0.106,0.112 -0.16,0.259 -0.16,0.44 0,0.224 0.077,0.405 0.232,0.544 0.155,0.139 0.358,0.254 0.61,0.344 0.251,0.091 0.538,0.168 0.858,0.232 0.321,0.063 0.653,0.134 0.995,0.208 0.332,0.074 0.658,0.165 0.979,0.271 0.321,0.107 0.607,0.251 0.859,0.433 0.252,0.182 0.455,0.41 0.61,0.688 0.155,0.277 0.233,0.619 0.233,1.024 0,0.49 -0.112,0.906 -0.337,1.248 -0.225,0.342 -0.516,0.618 -0.874,0.832 -0.358,0.213 -0.756,0.368 -1.194,0.464 -0.438,0.096 -0.872,0.144 -1.299,0.144 -0.524,0 -1.008,-0.059 -1.451,-0.176 -0.444,-0.117 -0.829,-0.296 -1.155,-0.536 -0.326,-0.239 -0.583,-0.538 -0.77,-0.896 -0.187,-0.358 -0.286,-0.781 -0.296,-1.272 h 1.824 z"
           id="path23-7"
           inkscape:connector-curvature="0"
           style="fill:#555555" />
        <path
           d="m 269.934,96.413 h 1.729 v 1.152 h 0.047 c 0.139,-0.202 0.289,-0.389 0.449,-0.56 0.16,-0.171 0.338,-0.314 0.535,-0.433 0.197,-0.117 0.424,-0.21 0.68,-0.279 0.256,-0.069 0.55,-0.104 0.881,-0.104 0.501,0 0.968,0.112 1.4,0.336 0.432,0.225 0.738,0.571 0.92,1.04 0.309,-0.427 0.666,-0.763 1.071,-1.008 0.405,-0.245 0.912,-0.368 1.521,-0.368 0.874,0 1.555,0.214 2.041,0.64 0.484,0.427 0.727,1.142 0.727,2.145 v 5.712 h -1.824 v -4.832 c 0,-0.33 -0.01,-0.632 -0.031,-0.904 -0.021,-0.271 -0.083,-0.506 -0.185,-0.704 -0.102,-0.197 -0.253,-0.349 -0.456,-0.456 -0.203,-0.106 -0.48,-0.159 -0.832,-0.159 -0.619,0 -1.066,0.191 -1.344,0.575 -0.277,0.385 -0.416,0.929 -0.416,1.633 v 4.848 h -1.824 v -5.312 c 0,-0.576 -0.104,-1.011 -0.312,-1.305 -0.207,-0.293 -0.589,-0.439 -1.144,-0.439 -0.234,0 -0.462,0.048 -0.68,0.144 -0.219,0.096 -0.411,0.234 -0.576,0.416 -0.165,0.182 -0.299,0.405 -0.399,0.672 -0.102,0.267 -0.152,0.571 -0.152,0.912 v 4.912 h -1.825 v -8.274 z"
           id="path25-9"
           inkscape:connector-curvature="0"
           style="fill:#555555" />
        <path
           d="m 288.286,104.909 c -0.66,0 -1.25,-0.109 -1.768,-0.327 -0.518,-0.219 -0.955,-0.521 -1.312,-0.904 -0.357,-0.383 -0.629,-0.843 -0.814,-1.376 -0.188,-0.533 -0.281,-1.12 -0.281,-1.76 0,-0.63 0.094,-1.211 0.281,-1.744 0.186,-0.533 0.457,-0.992 0.814,-1.376 0.357,-0.385 0.795,-0.686 1.312,-0.904 0.517,-0.218 1.107,-0.328 1.768,-0.328 0.662,0 1.252,0.109 1.768,0.328 0.518,0.219 0.955,0.52 1.312,0.904 0.357,0.384 0.629,0.843 0.816,1.376 0.187,0.533 0.279,1.114 0.279,1.744 0,0.64 -0.092,1.227 -0.279,1.76 -0.187,0.533 -0.459,0.992 -0.816,1.376 -0.357,0.384 -0.795,0.686 -1.312,0.904 -0.516,0.218 -1.106,0.327 -1.768,0.327 z m 0,-1.439 c 0.406,0 0.758,-0.085 1.057,-0.256 0.299,-0.171 0.543,-0.395 0.736,-0.672 0.191,-0.277 0.332,-0.59 0.424,-0.937 0.09,-0.347 0.135,-0.701 0.135,-1.063 0,-0.353 -0.045,-0.704 -0.135,-1.057 -0.092,-0.352 -0.232,-0.664 -0.424,-0.936 -0.193,-0.272 -0.438,-0.493 -0.736,-0.664 -0.298,-0.171 -0.65,-0.256 -1.057,-0.256 -0.404,0 -0.758,0.085 -1.055,0.256 -0.299,0.171 -0.545,0.392 -0.736,0.664 -0.193,0.271 -0.334,0.584 -0.424,0.936 -0.092,0.353 -0.137,0.704 -0.137,1.057 0,0.362 0.045,0.717 0.137,1.063 0.09,0.347 0.23,0.659 0.424,0.937 0.191,0.277 0.438,0.501 0.736,0.672 0.297,0.171 0.651,0.256 1.055,0.256 z"
           id="path27-2"
           inkscape:connector-curvature="0"
           style="fill:#555555" />
        <path
           d="m 295.997,102.029 c 0.055,0.534 0.256,0.907 0.609,1.12 0.352,0.214 0.771,0.32 1.264,0.32 0.17,0 0.365,-0.014 0.584,-0.04 0.219,-0.026 0.424,-0.077 0.615,-0.152 0.191,-0.074 0.35,-0.184 0.473,-0.328 0.123,-0.144 0.178,-0.333 0.168,-0.567 -0.012,-0.234 -0.096,-0.427 -0.256,-0.576 -0.16,-0.149 -0.365,-0.27 -0.617,-0.36 -0.25,-0.09 -0.535,-0.168 -0.855,-0.231 -0.32,-0.064 -0.645,-0.134 -0.977,-0.208 -0.34,-0.075 -0.668,-0.166 -0.982,-0.272 -0.316,-0.106 -0.598,-0.25 -0.85,-0.432 -0.25,-0.182 -0.449,-0.413 -0.6,-0.696 -0.148,-0.282 -0.223,-0.632 -0.223,-1.048 0,-0.448 0.107,-0.824 0.326,-1.128 0.219,-0.304 0.496,-0.55 0.832,-0.736 0.336,-0.186 0.711,-0.317 1.121,-0.392 0.41,-0.075 0.803,-0.112 1.176,-0.112 0.426,0 0.834,0.046 1.225,0.136 0.389,0.091 0.74,0.238 1.055,0.44 0.314,0.203 0.576,0.467 0.785,0.792 0.207,0.325 0.338,0.718 0.391,1.176 h -1.902 c -0.086,-0.438 -0.287,-0.73 -0.602,-0.88 -0.315,-0.15 -0.674,-0.224 -1.08,-0.224 -0.127,0 -0.279,0.011 -0.455,0.031 -0.176,0.021 -0.342,0.062 -0.496,0.12 -0.154,0.058 -0.285,0.145 -0.393,0.256 -0.105,0.112 -0.16,0.259 -0.16,0.44 0,0.224 0.078,0.405 0.234,0.544 0.154,0.139 0.357,0.254 0.609,0.344 0.252,0.091 0.537,0.168 0.857,0.232 0.322,0.063 0.652,0.134 0.996,0.208 0.33,0.074 0.658,0.165 0.979,0.271 0.32,0.107 0.607,0.251 0.857,0.433 0.252,0.182 0.455,0.41 0.611,0.688 0.154,0.277 0.232,0.619 0.232,1.024 0,0.49 -0.113,0.906 -0.338,1.248 -0.223,0.342 -0.516,0.618 -0.873,0.832 -0.357,0.213 -0.756,0.368 -1.195,0.464 -0.438,0.096 -0.871,0.144 -1.299,0.144 -0.523,0 -1.008,-0.059 -1.451,-0.176 -0.443,-0.117 -0.828,-0.296 -1.154,-0.536 -0.326,-0.239 -0.582,-0.538 -0.77,-0.896 -0.188,-0.358 -0.285,-0.781 -0.297,-1.272 h 1.826 z"
           id="path29-0"
           inkscape:connector-curvature="0"
           style="fill:#555555" />
        <path
           d="m 302.733,96.413 h 1.375 v -2.479 h 1.824 v 2.479 h 1.648 v 1.36 h -1.648 v 4.416 c 0,0.192 0.008,0.357 0.023,0.496 0.018,0.139 0.055,0.256 0.113,0.352 0.059,0.097 0.146,0.168 0.264,0.217 0.117,0.048 0.277,0.071 0.48,0.071 0.127,0 0.256,-0.002 0.383,-0.008 0.129,-0.005 0.256,-0.023 0.385,-0.056 v 1.408 c -0.203,0.021 -0.4,0.042 -0.592,0.063 -0.192,0.021 -0.391,0.032 -0.592,0.032 -0.48,0 -0.867,-0.046 -1.16,-0.136 -0.293,-0.091 -0.523,-0.225 -0.688,-0.4 -0.166,-0.176 -0.279,-0.397 -0.336,-0.664 -0.061,-0.267 -0.094,-0.57 -0.105,-0.912 v -4.88 h -1.375 v -1.359 z"
           id="path31-2"
           inkscape:connector-curvature="0"
           style="fill:#555555" />
        <path
           d="m 314.669,96.413 h 1.729 v 1.12 h 0.031 c 0.258,-0.479 0.613,-0.823 1.072,-1.031 0.459,-0.208 0.955,-0.312 1.488,-0.312 0.65,0 1.219,0.115 1.705,0.344 0.484,0.229 0.887,0.544 1.207,0.944 0.32,0.4 0.561,0.867 0.721,1.4 0.16,0.533 0.24,1.104 0.24,1.712 0,0.555 -0.072,1.093 -0.217,1.615 -0.145,0.523 -0.363,0.984 -0.656,1.385 -0.293,0.399 -0.664,0.72 -1.111,0.96 -0.449,0.239 -0.977,0.359 -1.584,0.359 -0.268,0 -0.533,-0.023 -0.801,-0.071 -0.266,-0.049 -0.521,-0.126 -0.768,-0.232 -0.247,-0.106 -0.473,-0.242 -0.68,-0.408 -0.209,-0.165 -0.381,-0.359 -0.52,-0.584 h -0.033 v 4.128 h -1.824 V 96.413 Z m 6.369,4.145 c 0,-0.373 -0.049,-0.736 -0.145,-1.088 -0.096,-0.353 -0.24,-0.664 -0.432,-0.937 -0.191,-0.271 -0.432,-0.49 -0.721,-0.655 -0.287,-0.166 -0.619,-0.248 -0.992,-0.248 -0.768,0 -1.346,0.267 -1.736,0.8 -0.389,0.533 -0.584,1.242 -0.584,2.128 0,0.416 0.051,0.803 0.152,1.16 0.101,0.357 0.254,0.664 0.457,0.92 0.201,0.256 0.445,0.459 0.727,0.607 0.283,0.15 0.611,0.225 0.984,0.225 0.416,0 0.77,-0.085 1.057,-0.256 0.287,-0.171 0.525,-0.393 0.713,-0.664 0.186,-0.272 0.318,-0.581 0.398,-0.929 0.081,-0.346 0.122,-0.701 0.122,-1.063 z"
           id="path33-3"
           inkscape:connector-curvature="0"
           style="fill:#555555" />
        <path
           d="m 328.829,104.909 c -0.662,0 -1.252,-0.109 -1.768,-0.327 -0.518,-0.219 -0.955,-0.521 -1.312,-0.904 -0.357,-0.383 -0.629,-0.843 -0.816,-1.376 -0.187,-0.533 -0.279,-1.12 -0.279,-1.76 0,-0.63 0.092,-1.211 0.279,-1.744 0.187,-0.533 0.459,-0.992 0.816,-1.376 0.357,-0.385 0.795,-0.686 1.312,-0.904 0.516,-0.219 1.105,-0.328 1.768,-0.328 0.66,0 1.25,0.109 1.768,0.328 0.518,0.219 0.955,0.52 1.312,0.904 0.357,0.384 0.629,0.843 0.816,1.376 0.186,0.533 0.279,1.114 0.279,1.744 0,0.64 -0.094,1.227 -0.279,1.76 -0.188,0.533 -0.459,0.992 -0.816,1.376 -0.357,0.384 -0.795,0.686 -1.312,0.904 -0.518,0.218 -1.108,0.327 -1.768,0.327 z m 0,-1.439 c 0.404,0 0.756,-0.085 1.055,-0.256 0.299,-0.171 0.545,-0.395 0.736,-0.672 0.193,-0.277 0.334,-0.59 0.424,-0.937 0.092,-0.347 0.137,-0.701 0.137,-1.063 0,-0.353 -0.045,-0.704 -0.137,-1.057 -0.09,-0.352 -0.23,-0.664 -0.424,-0.936 -0.191,-0.272 -0.438,-0.493 -0.736,-0.664 -0.298,-0.171 -0.65,-0.256 -1.055,-0.256 -0.406,0 -0.758,0.085 -1.057,0.256 -0.299,0.171 -0.543,0.392 -0.736,0.664 -0.191,0.271 -0.332,0.584 -0.424,0.936 -0.09,0.353 -0.135,0.704 -0.135,1.057 0,0.362 0.045,0.717 0.135,1.063 0.092,0.347 0.232,0.659 0.424,0.937 0.193,0.277 0.438,0.501 0.736,0.672 0.298,0.171 0.651,0.256 1.057,0.256 z"
           id="path35-7"
           inkscape:connector-curvature="0"
           style="fill:#555555" />
        <path
           d="m 335.214,96.413 h 1.729 v 1.12 h 0.031 c 0.256,-0.479 0.613,-0.823 1.072,-1.031 0.459,-0.208 0.955,-0.312 1.488,-0.312 0.65,0 1.219,0.115 1.703,0.344 0.486,0.229 0.889,0.544 1.209,0.944 0.318,0.4 0.559,0.867 0.719,1.4 0.16,0.533 0.24,1.104 0.24,1.712 0,0.555 -0.072,1.093 -0.215,1.615 -0.145,0.523 -0.363,0.984 -0.656,1.385 -0.295,0.399 -0.664,0.72 -1.113,0.96 -0.447,0.239 -0.975,0.359 -1.584,0.359 -0.266,0 -0.533,-0.023 -0.799,-0.071 -0.268,-0.049 -0.523,-0.126 -0.768,-0.232 -0.246,-0.106 -0.473,-0.242 -0.682,-0.408 -0.207,-0.165 -0.381,-0.359 -0.52,-0.584 h -0.031 v 4.128 h -1.824 V 96.413 Z m 6.367,4.145 c 0,-0.373 -0.047,-0.736 -0.143,-1.088 -0.098,-0.353 -0.24,-0.664 -0.434,-0.937 -0.191,-0.271 -0.432,-0.49 -0.719,-0.655 -0.289,-0.166 -0.619,-0.248 -0.992,-0.248 -0.768,0 -1.348,0.267 -1.736,0.8 -0.388,0.533 -0.584,1.242 -0.584,2.128 0,0.416 0.051,0.803 0.152,1.16 0.101,0.357 0.252,0.664 0.455,0.92 0.203,0.256 0.445,0.459 0.729,0.607 0.283,0.15 0.611,0.225 0.984,0.225 0.416,0 0.768,-0.085 1.055,-0.256 0.289,-0.171 0.525,-0.393 0.713,-0.664 0.188,-0.272 0.32,-0.581 0.4,-0.929 0.081,-0.346 0.12,-0.701 0.12,-1.063 z"
           id="path37-5"
           inkscape:connector-curvature="0"
           style="fill:#555555" />
        <path
           d="m 352.845,104.686 h -1.793 v -1.152 h -0.031 c -0.225,0.416 -0.557,0.75 -1,1 -0.443,0.251 -0.893,0.376 -1.352,0.376 -1.088,0 -1.875,-0.269 -2.359,-0.808 -0.486,-0.538 -0.729,-1.352 -0.729,-2.44 v -5.248 h 1.824 v 5.072 c 0,0.726 0.139,1.237 0.416,1.536 0.277,0.299 0.666,0.448 1.168,0.448 0.383,0 0.703,-0.059 0.959,-0.176 0.256,-0.117 0.465,-0.274 0.625,-0.473 0.16,-0.197 0.273,-0.435 0.344,-0.712 0.068,-0.277 0.104,-0.576 0.104,-0.896 v -4.801 h 1.824 z"
           id="path39-9"
           inkscape:connector-curvature="0"
           style="fill:#555555" />
        <path
           d="m 355.452,93.262 h 1.824 v 11.424 h -1.824 z"
           id="path41-2"
           inkscape:connector-curvature="0"
           style="fill:#555555" />
        <path
           d="m 366.827,102.846 c 0,0.224 0.029,0.384 0.088,0.479 0.059,0.097 0.174,0.145 0.346,0.145 0.053,0 0.117,0 0.191,0 0.074,0 0.16,-0.011 0.256,-0.032 v 1.264 c -0.064,0.021 -0.146,0.046 -0.248,0.072 -0.102,0.026 -0.205,0.051 -0.312,0.072 -0.105,0.021 -0.213,0.037 -0.32,0.048 -0.105,0.011 -0.197,0.016 -0.271,0.016 -0.373,0 -0.682,-0.074 -0.928,-0.224 -0.246,-0.15 -0.406,-0.41 -0.48,-0.784 -0.361,0.353 -0.807,0.608 -1.336,0.769 -0.527,0.159 -1.037,0.239 -1.527,0.239 -0.373,0 -0.73,-0.051 -1.072,-0.151 -0.342,-0.102 -0.643,-0.251 -0.904,-0.448 -0.261,-0.197 -0.469,-0.448 -0.623,-0.752 -0.156,-0.304 -0.232,-0.658 -0.232,-1.064 0,-0.512 0.094,-0.928 0.279,-1.248 0.188,-0.319 0.432,-0.57 0.736,-0.752 0.305,-0.181 0.645,-0.312 1.023,-0.392 0.378,-0.08 0.76,-0.142 1.145,-0.184 0.33,-0.064 0.645,-0.109 0.943,-0.137 0.299,-0.026 0.562,-0.071 0.793,-0.136 0.229,-0.063 0.41,-0.162 0.543,-0.296 0.135,-0.134 0.201,-0.333 0.201,-0.6 0,-0.235 -0.057,-0.427 -0.168,-0.576 -0.111,-0.149 -0.252,-0.265 -0.416,-0.345 -0.166,-0.079 -0.35,-0.133 -0.553,-0.159 -0.203,-0.027 -0.395,-0.04 -0.576,-0.04 -0.512,0 -0.934,0.106 -1.264,0.319 -0.33,0.214 -0.518,0.544 -0.561,0.992 h -1.822 c 0.031,-0.533 0.158,-0.976 0.383,-1.328 0.225,-0.352 0.51,-0.634 0.855,-0.848 0.348,-0.213 0.74,-0.362 1.178,-0.448 0.436,-0.085 0.885,-0.128 1.344,-0.128 0.404,0 0.805,0.043 1.199,0.128 0.395,0.086 0.75,0.225 1.064,0.416 0.314,0.192 0.568,0.44 0.76,0.744 0.192,0.304 0.287,0.675 0.287,1.112 v 4.257 z m -1.822,-2.304 c -0.279,0.181 -0.619,0.29 -1.025,0.327 -0.404,0.038 -0.811,0.094 -1.215,0.168 -0.193,0.032 -0.379,0.078 -0.561,0.137 -0.182,0.059 -0.342,0.139 -0.48,0.239 -0.139,0.102 -0.248,0.235 -0.328,0.4 -0.08,0.166 -0.119,0.365 -0.119,0.6 0,0.203 0.059,0.374 0.176,0.513 0.117,0.139 0.258,0.248 0.424,0.328 0.166,0.08 0.346,0.136 0.545,0.168 0.197,0.031 0.375,0.048 0.535,0.048 0.203,0 0.422,-0.026 0.656,-0.08 0.234,-0.054 0.455,-0.145 0.664,-0.272 0.207,-0.128 0.381,-0.29 0.52,-0.487 0.139,-0.197 0.209,-0.44 0.209,-0.729 v -1.36 z"
           id="path43-2"
           inkscape:connector-curvature="0"
           style="fill:#555555" />
        <path
           d="m 369.437,96.413 h 1.711 v 1.601 h 0.033 c 0.053,-0.225 0.156,-0.442 0.311,-0.656 0.156,-0.213 0.342,-0.408 0.561,-0.584 0.219,-0.176 0.461,-0.317 0.729,-0.424 0.266,-0.106 0.539,-0.16 0.816,-0.16 0.213,0 0.359,0.006 0.439,0.016 0.08,0.011 0.162,0.021 0.248,0.032 v 1.76 c -0.129,-0.021 -0.26,-0.039 -0.393,-0.056 -0.133,-0.016 -0.264,-0.023 -0.391,-0.023 -0.311,0 -0.602,0.062 -0.873,0.184 -0.271,0.123 -0.51,0.304 -0.711,0.544 -0.203,0.24 -0.363,0.536 -0.48,0.888 -0.117,0.353 -0.176,0.758 -0.176,1.217 v 3.936 h -1.824 z"
           id="path45-8"
           inkscape:connector-curvature="0"
           style="fill:#555555" />
        <path
           d="m 381.052,93.262 h 5.457 c 1.258,0 2.201,0.271 2.832,0.815 0.629,0.544 0.943,1.302 0.943,2.272 0,0.544 -0.08,0.995 -0.24,1.352 -0.16,0.357 -0.346,0.646 -0.559,0.864 -0.215,0.219 -0.426,0.376 -0.633,0.472 -0.209,0.097 -0.359,0.16 -0.457,0.192 v 0.032 c 0.172,0.021 0.355,0.074 0.553,0.16 0.197,0.085 0.381,0.221 0.553,0.407 0.17,0.188 0.311,0.43 0.424,0.729 0.111,0.299 0.168,0.672 0.168,1.12 0,0.672 0.051,1.282 0.152,1.832 0.1,0.549 0.258,0.941 0.471,1.176 h -2.143 c -0.15,-0.245 -0.238,-0.518 -0.266,-0.816 -0.025,-0.298 -0.039,-0.586 -0.039,-0.863 0,-0.522 -0.031,-0.974 -0.096,-1.353 -0.064,-0.378 -0.182,-0.693 -0.352,-0.943 -0.172,-0.251 -0.404,-0.435 -0.697,-0.553 -0.293,-0.117 -0.67,-0.176 -1.127,-0.176 h -2.945 v 4.704 h -2 V 93.262 Z m 2,5.2 h 3.281 c 0.639,0 1.125,-0.152 1.455,-0.456 0.33,-0.305 0.496,-0.761 0.496,-1.368 0,-0.362 -0.053,-0.658 -0.16,-0.888 -0.105,-0.229 -0.254,-0.408 -0.439,-0.536 -0.188,-0.128 -0.4,-0.214 -0.641,-0.256 -0.24,-0.043 -0.488,-0.064 -0.744,-0.064 h -3.248 z"
           id="path47-9"
           inkscape:connector-curvature="0"
           style="fill:#555555" />
        <path
           d="m 396.013,93.262 h 2.127 l 4.4,11.424 h -2.145 l -1.072,-3.024 h -4.559 l -1.072,3.024 h -2.064 z m -0.705,6.88 h 3.488 l -1.713,-4.912 h -0.047 z"
           id="path49-7"
           inkscape:connector-curvature="0"
           style="fill:#555555" />
        <path
           d="m 404.269,93.262 h 4.736 c 0.873,0 1.631,0.149 2.271,0.448 0.641,0.298 1.162,0.706 1.568,1.224 0.404,0.518 0.705,1.123 0.904,1.816 0.197,0.693 0.295,1.435 0.295,2.224 0,0.789 -0.098,1.53 -0.295,2.224 -0.199,0.693 -0.5,1.299 -0.904,1.816 -0.406,0.518 -0.928,0.926 -1.568,1.224 -0.641,0.299 -1.398,0.448 -2.271,0.448 h -4.736 z m 2,9.792 h 1.967 c 0.779,0 1.416,-0.104 1.912,-0.312 0.496,-0.208 0.887,-0.496 1.168,-0.863 0.283,-0.368 0.475,-0.801 0.576,-1.296 0.102,-0.496 0.152,-1.032 0.152,-1.608 0,-0.576 -0.051,-1.112 -0.152,-1.608 -0.101,-0.496 -0.293,-0.928 -0.576,-1.296 -0.281,-0.368 -0.672,-0.656 -1.168,-0.864 -0.496,-0.208 -1.133,-0.312 -1.912,-0.312 h -1.967 z"
           id="path51-3"
           inkscape:connector-curvature="0"
           style="fill:#555555" />
        <path
           d="m 416.46,93.262 h 2 v 11.424 h -2 z"
           id="path53-6"
           inkscape:connector-curvature="0"
           style="fill:#555555" />
        <path
           d="m 421.419,93.262 h 2 v 6.656 c 0,0.384 0.02,0.773 0.057,1.168 0.037,0.395 0.145,0.749 0.32,1.063 0.175,0.314 0.441,0.573 0.799,0.776 0.357,0.202 0.861,0.304 1.514,0.304 0.65,0 1.154,-0.102 1.512,-0.304 0.357,-0.203 0.623,-0.462 0.799,-0.776 0.176,-0.314 0.283,-0.669 0.32,-1.063 0.037,-0.394 0.057,-0.784 0.057,-1.168 v -6.656 h 2 v 7.312 c 0,0.736 -0.113,1.376 -0.336,1.92 -0.225,0.544 -0.541,1 -0.953,1.368 -0.41,0.368 -0.902,0.643 -1.479,0.824 -0.577,0.181 -1.217,0.272 -1.92,0.272 -0.705,0 -1.346,-0.091 -1.92,-0.272 -0.576,-0.182 -1.07,-0.456 -1.48,-0.824 -0.412,-0.368 -0.729,-0.824 -0.953,-1.368 -0.223,-0.544 -0.336,-1.184 -0.336,-1.92 v -7.312 z"
           id="path55-1"
           inkscape:connector-curvature="0"
           style="fill:#555555" />
        <path
           d="m 435.052,100.878 c 0,0.438 0.074,0.811 0.225,1.119 0.148,0.31 0.357,0.563 0.623,0.761 0.268,0.197 0.574,0.341 0.92,0.432 0.348,0.091 0.723,0.136 1.129,0.136 0.438,0 0.811,-0.05 1.119,-0.151 0.311,-0.102 0.561,-0.232 0.752,-0.393 0.193,-0.16 0.332,-0.344 0.416,-0.552 0.086,-0.208 0.129,-0.418 0.129,-0.632 0,-0.438 -0.1,-0.76 -0.297,-0.968 -0.197,-0.208 -0.412,-0.354 -0.646,-0.44 -0.406,-0.149 -0.879,-0.29 -1.416,-0.424 -0.539,-0.134 -1.203,-0.307 -1.992,-0.521 -0.492,-0.128 -0.9,-0.296 -1.225,-0.504 -0.326,-0.208 -0.584,-0.439 -0.775,-0.695 -0.193,-0.257 -0.328,-0.528 -0.408,-0.816 -0.08,-0.288 -0.121,-0.581 -0.121,-0.88 0,-0.576 0.121,-1.074 0.361,-1.496 0.238,-0.421 0.557,-0.771 0.951,-1.048 0.394,-0.277 0.842,-0.482 1.344,-0.616 0.502,-0.133 1.008,-0.2 1.52,-0.2 0.598,0 1.16,0.078 1.689,0.232 0.527,0.154 0.992,0.387 1.391,0.696 0.4,0.309 0.719,0.69 0.953,1.144 0.234,0.454 0.352,0.979 0.352,1.576 h -2 c -0.053,-0.736 -0.305,-1.256 -0.752,-1.561 -0.447,-0.304 -1.02,-0.456 -1.713,-0.456 -0.234,0 -0.475,0.024 -0.719,0.072 -0.246,0.048 -0.471,0.128 -0.672,0.24 -0.203,0.112 -0.371,0.264 -0.504,0.456 -0.135,0.192 -0.201,0.432 -0.201,0.72 0,0.405 0.125,0.723 0.377,0.952 0.25,0.229 0.578,0.402 0.984,0.521 0.041,0.011 0.209,0.056 0.504,0.136 0.293,0.08 0.621,0.168 0.982,0.264 0.363,0.096 0.719,0.189 1.064,0.28 0.348,0.091 0.596,0.157 0.744,0.2 0.373,0.117 0.699,0.277 0.977,0.479 0.277,0.203 0.51,0.435 0.695,0.696 0.188,0.262 0.326,0.541 0.416,0.84 0.092,0.299 0.137,0.598 0.137,0.896 0,0.64 -0.131,1.187 -0.393,1.64 -0.262,0.453 -0.605,0.824 -1.031,1.112 -0.428,0.287 -0.912,0.498 -1.457,0.632 -0.543,0.133 -1.098,0.2 -1.664,0.2 -0.65,0 -1.264,-0.08 -1.84,-0.24 -0.576,-0.16 -1.076,-0.405 -1.504,-0.736 -0.426,-0.33 -0.768,-0.755 -1.023,-1.271 -0.256,-0.518 -0.391,-1.128 -0.4,-1.832 z"
           id="path57-2"
           inkscape:connector-curvature="0"
           style="fill:#555555" />
        <path
           d="m 451.149,100.878 c 0,0.438 0.074,0.811 0.223,1.119 0.15,0.31 0.357,0.563 0.625,0.761 0.266,0.197 0.572,0.341 0.92,0.432 0.346,0.091 0.723,0.136 1.127,0.136 0.438,0 0.811,-0.05 1.121,-0.151 0.309,-0.102 0.559,-0.232 0.752,-0.393 0.191,-0.16 0.33,-0.344 0.416,-0.552 0.084,-0.208 0.127,-0.418 0.127,-0.632 0,-0.438 -0.098,-0.76 -0.295,-0.968 -0.197,-0.208 -0.414,-0.354 -0.648,-0.44 -0.406,-0.149 -0.877,-0.29 -1.416,-0.424 -0.539,-0.134 -1.203,-0.307 -1.992,-0.521 -0.49,-0.128 -0.898,-0.296 -1.225,-0.504 -0.324,-0.208 -0.584,-0.439 -0.775,-0.695 -0.191,-0.257 -0.328,-0.528 -0.408,-0.816 -0.08,-0.288 -0.119,-0.581 -0.119,-0.88 0,-0.576 0.119,-1.074 0.359,-1.496 0.24,-0.421 0.557,-0.771 0.953,-1.048 0.393,-0.277 0.842,-0.482 1.344,-0.616 0.5,-0.133 1.008,-0.2 1.52,-0.2 0.598,0 1.16,0.078 1.688,0.232 0.528,0.154 0.992,0.387 1.393,0.696 0.4,0.309 0.717,0.69 0.951,1.144 0.234,0.454 0.352,0.979 0.352,1.576 h -2 c -0.053,-0.736 -0.303,-1.256 -0.752,-1.561 -0.447,-0.304 -1.018,-0.456 -1.711,-0.456 -0.234,0 -0.475,0.024 -0.721,0.072 -0.244,0.048 -0.469,0.128 -0.672,0.24 -0.203,0.112 -0.371,0.264 -0.504,0.456 -0.133,0.192 -0.199,0.432 -0.199,0.72 0,0.405 0.125,0.723 0.375,0.952 0.252,0.229 0.578,0.402 0.984,0.521 0.043,0.011 0.211,0.056 0.504,0.136 0.293,0.08 0.621,0.168 0.984,0.264 0.363,0.096 0.717,0.189 1.064,0.28 0.346,0.091 0.594,0.157 0.744,0.2 0.373,0.117 0.697,0.277 0.975,0.479 0.277,0.203 0.51,0.435 0.697,0.696 0.186,0.262 0.324,0.541 0.416,0.84 0.09,0.299 0.135,0.598 0.135,0.896 0,0.64 -0.131,1.187 -0.391,1.64 -0.262,0.453 -0.605,0.824 -1.033,1.112 -0.426,0.287 -0.912,0.498 -1.455,0.632 -0.545,0.133 -1.1,0.2 -1.664,0.2 -0.65,0 -1.264,-0.08 -1.84,-0.24 -0.576,-0.16 -1.078,-0.405 -1.504,-0.736 -0.428,-0.33 -0.77,-0.755 -1.025,-1.271 -0.256,-0.518 -0.389,-1.128 -0.398,-1.832 z"
           id="path59-9"
           inkscape:connector-curvature="0"
           style="fill:#555555" />
        <path
           d="m 462.013,101.021 c 0,0.32 0.045,0.63 0.135,0.928 0.092,0.299 0.227,0.561 0.408,0.784 0.182,0.225 0.412,0.403 0.689,0.536 0.277,0.134 0.607,0.2 0.992,0.2 0.533,0 0.961,-0.114 1.287,-0.344 0.326,-0.23 0.568,-0.573 0.729,-1.032 h 1.727 c -0.096,0.448 -0.26,0.848 -0.494,1.2 -0.236,0.352 -0.518,0.647 -0.85,0.888 -0.33,0.24 -0.701,0.422 -1.111,0.544 -0.41,0.122 -0.84,0.184 -1.287,0.184 -0.652,0 -1.229,-0.106 -1.729,-0.319 -0.502,-0.214 -0.926,-0.513 -1.271,-0.896 -0.348,-0.384 -0.609,-0.843 -0.785,-1.376 -0.176,-0.533 -0.264,-1.12 -0.264,-1.76 0,-0.587 0.094,-1.145 0.279,-1.672 0.188,-0.528 0.453,-0.992 0.801,-1.393 0.346,-0.399 0.766,-0.717 1.256,-0.951 0.49,-0.235 1.045,-0.353 1.664,-0.353 0.65,0 1.234,0.136 1.752,0.408 0.518,0.271 0.947,0.632 1.287,1.08 0.342,0.448 0.59,0.963 0.744,1.544 0.154,0.581 0.195,1.182 0.121,1.8 z m 4.256,-1.2 c -0.021,-0.288 -0.082,-0.565 -0.184,-0.832 -0.102,-0.267 -0.24,-0.498 -0.416,-0.695 -0.176,-0.197 -0.391,-0.357 -0.641,-0.48 -0.25,-0.122 -0.531,-0.184 -0.84,-0.184 -0.32,0 -0.611,0.056 -0.871,0.168 -0.262,0.111 -0.486,0.267 -0.674,0.464 -0.186,0.197 -0.336,0.43 -0.447,0.696 -0.111,0.266 -0.174,0.555 -0.184,0.863 z"
           id="path61-3"
           inkscape:connector-curvature="0"
           style="fill:#555555" />
        <path
           d="m 470.124,96.413 h 1.713 v 1.601 h 0.031 c 0.053,-0.225 0.158,-0.442 0.312,-0.656 0.154,-0.213 0.342,-0.408 0.561,-0.584 0.219,-0.176 0.461,-0.317 0.727,-0.424 0.268,-0.106 0.539,-0.16 0.816,-0.16 0.213,0 0.361,0.006 0.439,0.016 0.08,0.011 0.164,0.021 0.248,0.032 v 1.76 c -0.127,-0.021 -0.258,-0.039 -0.391,-0.056 -0.135,-0.016 -0.264,-0.023 -0.393,-0.023 -0.309,0 -0.6,0.062 -0.871,0.184 -0.273,0.123 -0.51,0.304 -0.713,0.544 -0.203,0.24 -0.363,0.536 -0.48,0.888 -0.117,0.353 -0.176,0.758 -0.176,1.217 v 3.936 h -1.824 v -8.275 z"
           id="path63-1"
           inkscape:connector-curvature="0"
           style="fill:#555555" />
        <path
           d="m 475.581,96.413 h 1.984 l 2.096,6.353 h 0.031 l 2.018,-6.353 h 1.887 l -2.959,8.272 h -2.049 z"
           id="path65-9"
           inkscape:connector-curvature="0"
           style="fill:#555555" />
        <path
           d="m 486.765,101.021 c 0,0.32 0.045,0.63 0.135,0.928 0.092,0.299 0.227,0.561 0.408,0.784 0.182,0.225 0.412,0.403 0.689,0.536 0.277,0.134 0.607,0.2 0.992,0.2 0.533,0 0.961,-0.114 1.287,-0.344 0.326,-0.23 0.568,-0.573 0.729,-1.032 h 1.727 c -0.096,0.448 -0.26,0.848 -0.494,1.2 -0.236,0.352 -0.518,0.647 -0.85,0.888 -0.33,0.24 -0.701,0.422 -1.111,0.544 -0.41,0.122 -0.84,0.184 -1.287,0.184 -0.652,0 -1.229,-0.106 -1.729,-0.319 -0.502,-0.214 -0.926,-0.513 -1.271,-0.896 -0.348,-0.384 -0.609,-0.843 -0.785,-1.376 -0.176,-0.533 -0.264,-1.12 -0.264,-1.76 0,-0.587 0.094,-1.145 0.279,-1.672 0.188,-0.528 0.453,-0.992 0.801,-1.393 0.346,-0.399 0.766,-0.717 1.256,-0.951 0.49,-0.235 1.045,-0.353 1.664,-0.353 0.65,0 1.234,0.136 1.752,0.408 0.518,0.271 0.947,0.632 1.287,1.08 0.342,0.448 0.59,0.963 0.744,1.544 0.154,0.581 0.195,1.182 0.121,1.8 z m 4.256,-1.2 c -0.021,-0.288 -0.082,-0.565 -0.184,-0.832 -0.102,-0.267 -0.24,-0.498 -0.416,-0.695 -0.176,-0.197 -0.391,-0.357 -0.641,-0.48 -0.25,-0.122 -0.531,-0.184 -0.84,-0.184 -0.32,0 -0.611,0.056 -0.871,0.168 -0.262,0.111 -0.486,0.267 -0.674,0.464 -0.186,0.197 -0.336,0.43 -0.447,0.696 -0.111,0.266 -0.174,0.555 -0.184,0.863 z"
           id="path67-4"
           inkscape:connector-curvature="0"
           style="fill:#555555" />
        <path
           d="m 494.876,96.413 h 1.713 v 1.601 h 0.031 c 0.053,-0.225 0.158,-0.442 0.312,-0.656 0.154,-0.213 0.342,-0.408 0.561,-0.584 0.219,-0.176 0.461,-0.317 0.727,-0.424 0.268,-0.106 0.539,-0.16 0.816,-0.16 0.213,0 0.361,0.006 0.439,0.016 0.08,0.011 0.164,0.021 0.248,0.032 v 1.76 c -0.127,-0.021 -0.258,-0.039 -0.391,-0.056 -0.135,-0.016 -0.264,-0.023 -0.393,-0.023 -0.309,0 -0.6,0.062 -0.871,0.184 -0.273,0.123 -0.51,0.304 -0.713,0.544 -0.203,0.24 -0.363,0.536 -0.48,0.888 -0.117,0.353 -0.176,0.758 -0.176,1.217 v 3.936 h -1.824 v -8.275 z"
           id="path69-7"
           inkscape:connector-curvature="0"
           style="fill:#555555" />
      </g>
      <g
         id="Logo_Name-8">
        <g
           id="Free-4">
          <path
             d="m 197.195,36.697 -0.716,4.167 c -0.13,0.716 -0.847,1.302 -1.562,1.302 h -13.282 c -3.776,0 -5.339,1.302 -6.121,5.599 l -1.237,7.032 h 17.645 c 0.651,0 1.107,0.456 1.107,1.107 0,0.065 0,0.13 0,0.195 l -0.847,4.688 c -0.13,0.716 -0.846,1.302 -1.562,1.302 h -17.645 l -3.451,19.924 c -0.13,0.716 -0.847,1.302 -1.563,1.302 h -6.38 c -0.651,0 -1.042,-0.456 -1.042,-1.042 0,-0.13 0,-0.195 0,-0.26 l 5.99,-34.248 c 1.953,-11.068 7.683,-13.347 17.384,-13.347 7.748,0 10.222,0.586 12.24,0.912 0.781,0.13 1.107,0.325 1.107,0.911 0,0.131 -0.065,0.261 -0.065,0.456 z"
             id="path73-5"
             inkscape:connector-curvature="0"
             style="fill:#555555" />
          <path
             d="m 222.328,47.44 -0.846,4.688 c -0.13,0.716 -0.781,1.302 -1.498,1.302 -2.083,0 -4.948,0.13 -9.375,2.344 l -4.623,26.174 c -0.13,0.716 -0.846,1.367 -1.562,1.367 h -5.99 c -0.651,0 -1.042,-0.521 -1.042,-1.106 0,-0.131 0,-0.195 0,-0.261 l 5.99,-34.052 c 0.13,-0.716 0.781,-1.302 1.498,-1.302 h 5.665 c 0.651,0 1.107,0.456 1.107,1.107 0,0.065 0,0.13 0,0.195 l -0.26,1.367 c 3.711,-2.865 7.162,-3.125 9.896,-3.125 0.651,0 1.042,0.456 1.042,1.042 -0.002,0.13 -0.002,0.195 -0.002,0.26 z"
             id="path75-0"
             inkscape:connector-curvature="0"
             style="fill:#555555" />
          <path
             d="m 255.079,63.197 -0.521,3.125 c -0.195,1.042 -0.651,1.628 -1.563,1.628 H 231.77 c -0.13,0.912 -0.325,1.758 -0.325,2.669 0,3.516 1.823,5.859 6.641,5.859 4.753,0 9.245,-0.455 12.045,-0.716 0.065,0 0.195,0 0.261,0 0.521,0 0.977,0.13 0.977,0.716 0,0.065 0,0.195 0,0.261 l -0.781,4.297 c -0.195,1.042 -0.391,1.498 -1.628,1.693 -4.362,0.781 -7.227,1.106 -13.087,1.106 -5.795,0 -12.827,-3.255 -12.827,-13.086 0,-1.172 0.065,-2.54 0.326,-3.907 l 0.716,-4.037 c 2.148,-12.176 8.594,-16.668 18.556,-16.668 8.659,0 12.761,5.729 12.761,13.347 -0.001,1.173 -0.131,2.475 -0.326,3.713 z m -13.738,-9.636 c -5.209,0 -7.618,3.516 -8.464,8.269 h 13.803 c 0.13,-0.847 0.26,-1.628 0.26,-2.474 0,-3.777 -2.018,-5.795 -5.599,-5.795 z"
             id="path77-3"
             inkscape:connector-curvature="0"
             style="fill:#555555" />
          <path
             d="m 292.452,63.197 -0.52,3.125 c -0.195,1.042 -0.652,1.628 -1.562,1.628 h -21.227 c -0.131,0.912 -0.326,1.758 -0.326,2.669 0,3.516 1.824,5.859 6.643,5.859 4.752,0 9.244,-0.455 12.045,-0.716 0.064,0 0.195,0 0.26,0 0.521,0 0.977,0.13 0.977,0.716 0,0.065 0,0.195 0,0.261 l -0.781,4.297 c -0.195,1.042 -0.391,1.498 -1.627,1.693 -4.363,0.781 -7.229,1.106 -13.088,1.106 -5.795,0 -12.827,-3.255 -12.827,-13.086 0,-1.172 0.065,-2.54 0.326,-3.907 l 0.716,-4.037 c 2.149,-12.176 8.596,-16.668 18.557,-16.668 8.66,0 12.762,5.729 12.762,13.347 -0.002,1.173 -0.133,2.475 -0.328,3.713 z m -13.738,-9.636 c -5.207,0 -7.617,3.516 -8.463,8.269 h 13.803 c 0.131,-0.847 0.26,-1.628 0.26,-2.474 -0.001,-3.777 -2.018,-5.795 -5.6,-5.795 z"
             id="path79-6"
             inkscape:connector-curvature="0"
             style="fill:#555555" />
        </g>
        <g
           id="RADIUS-1">
          <path
             d="m 325.333,63.001 6.902,19.012 c 0.064,0.13 0.064,0.195 0.064,0.325 0,0.521 -0.391,0.977 -0.977,0.977 h -7.486 c -0.717,0 -0.977,-0.521 -1.238,-1.302 l -6.186,-17.385 h -1.301 c -1.693,0 -3.582,-0.13 -5.795,-0.26 l -3.061,17.645 c -0.131,0.716 -0.781,1.302 -1.498,1.302 h -6.51 c -0.652,0 -1.043,-0.456 -1.043,-1.042 0,-0.064 0,-0.13 0,-0.195 v -0.064 l 7.879,-44.795 c 0.26,-1.302 1.041,-1.758 2.408,-1.954 3.451,-0.521 8.139,-0.846 12.893,-0.846 9.766,0 16.473,3.776 16.473,11.915 10e-4,7.617 -3.971,14.323 -11.524,16.667 z m -6.314,-20.834 c -1.367,0 -4.623,0.13 -5.795,0.26 l -2.605,14.649 c 1.043,0.065 4.689,0.195 5.795,0.195 6.707,0 11.33,-2.474 11.33,-9.831 -0.001,-3.971 -2.997,-5.273 -8.725,-5.273 z"
             id="path82-0"
             inkscape:connector-curvature="0"
             style="fill:#004d95" />
          <path
             d="m 374.233,83.315 h -6.641 c -0.586,0 -0.977,-0.521 -1.043,-1.106 l -0.781,-12.371 h -14.975 l -5.209,12.371 c -0.26,0.586 -0.846,1.106 -1.432,1.106 h -7.162 c -0.586,0 -0.977,-0.325 -0.977,-0.847 0,-0.195 0.064,-0.391 0.129,-0.586 l 17.84,-40.823 c 2.67,-6.055 6.643,-6.641 10.223,-6.641 3.32,0 7.422,1.172 7.879,6.641 l 3.516,40.823 c 0,0.065 0,0.065 0,0.131 10e-4,0.716 -0.585,1.302 -1.367,1.302 z M 364.011,43.078 c -0.064,-0.782 -0.195,-1.042 -0.846,-1.042 -0.652,0 -0.912,0.26 -1.238,1.042 l -8.072,19.337 h 11.459 z"
             id="path84-6"
             inkscape:connector-curvature="0"
             style="fill:#004d95" />
          <path
             d="m 421.569,54.342 -1.627,9.571 c -2.279,13.412 -10.158,19.923 -23.961,19.923 -4.623,0 -10.809,-0.455 -12.695,-0.781 -0.912,-0.13 -1.434,-0.586 -1.434,-1.497 0,-0.195 0,-0.325 0.064,-0.521 l 7.748,-43.818 c 0.262,-1.302 0.848,-1.823 2.02,-2.019 2.018,-0.326 8.334,-0.781 12.957,-0.781 11.068,0 17.318,5.794 17.318,15.496 10e-4,1.367 -0.13,2.864 -0.39,4.427 z m -18.23,-12.306 c -2.408,0 -4.168,0.13 -5.535,0.195 l -5.924,33.792 c 1.367,0.064 2.994,0.195 5.404,0.195 6.51,0 12.109,-2.93 13.672,-12.306 l 1.629,-9.571 c 0.26,-1.562 0.391,-2.93 0.391,-4.102 0,-6.64 -3.842,-8.203 -9.637,-8.203 z"
             id="path86-3"
             inkscape:connector-curvature="0"
             style="fill:#004d95" />
          <path
             d="m 442.341,36.176 -8.074,45.837 c -0.129,0.716 -0.846,1.302 -1.562,1.302 h -6.445 c -0.65,0 -1.041,-0.456 -1.041,-1.042 0,-0.13 0,-0.195 0,-0.26 l 8.072,-45.837 c 0.131,-0.716 0.781,-1.237 1.498,-1.237 h 6.445 c 0.652,0 1.107,0.391 1.107,1.042 0,0.065 0,0.13 0,0.195 z"
             id="path88-2"
             inkscape:connector-curvature="0"
             style="fill:#004d95" />
          <path
             d="m 487.593,36.176 -5.209,29.234 c -2.605,14.585 -10.223,18.426 -20.967,18.426 -9.244,0 -15.234,-4.297 -15.234,-13.672 0,-1.433 0.064,-3.061 0.391,-4.753 l 5.209,-29.234 c 0.129,-0.716 0.781,-1.237 1.496,-1.237 h 6.447 c 0.65,0 1.105,0.456 1.105,1.042 0,0.065 0,0.13 0,0.195 l -5.207,29.234 c -0.326,1.888 -0.521,3.516 -0.521,4.883 0,4.363 2.018,6.055 7.488,6.055 7.031,0 9.375,-3.255 10.742,-10.938 l 5.209,-29.234 c 0.131,-0.716 0.781,-1.237 1.498,-1.237 h 6.445 c 0.65,0 1.107,0.456 1.107,1.042 0.001,0.064 0.001,0.129 0.001,0.194 z"
             id="path90-0"
             inkscape:connector-curvature="0"
             style="fill:#004d95" />
          <path
             d="m 524.901,36.828 -0.848,4.818 c -0.129,0.651 -0.65,1.172 -1.301,1.172 -0.066,0 -0.066,0 -0.131,0 -4.232,-0.391 -7.943,-0.651 -12.762,-0.651 -3.58,0 -7.684,1.107 -7.684,5.469 0,1.693 1.107,2.93 4.363,4.948 l 7.031,4.362 c 5.273,3.255 6.902,7.422 6.902,11.134 0,11.394 -8.984,15.756 -19.664,15.756 -4.883,0 -8.334,-0.455 -11.328,-1.172 -0.521,-0.13 -1.041,-0.521 -1.041,-1.106 0,-0.065 0,-0.13 0,-0.195 l 0.846,-4.688 c 0.131,-0.65 0.717,-1.236 1.432,-1.236 0.066,0 0.066,0 0.131,0 2.604,0.325 9.051,0.65 11.459,0.65 4.559,0 8.596,-1.562 8.596,-6.771 0,-1.693 -1.043,-3.19 -4.428,-5.469 l -7.684,-5.144 c -4.428,-2.93 -5.73,-7.357 -5.73,-10.548 0,-10.938 9.311,-13.738 18.557,-13.738 4.297,0 10.158,0.651 12.307,1.172 0.52,0.13 0.977,0.521 0.977,1.042 0,0.064 0,0.129 0,0.195 z"
             id="path92-6"
             inkscape:connector-curvature="0"
             style="fill:#004d95" />
        </g>
      </g>
      <g
         id="Logo_Symbol-1">
        <path
           d="m 114.946,15.547 -7.753,12.855 c 8.389,5.748 15.13,14.063 18.865,24.329 9.521,26.168 -4.022,55.202 -30.19,64.724 -26.167,9.521 -55.202,-4.022 -64.722,-30.192 -7.922,-21.772 0.133,-45.52 18.135,-58.369 l -5.28,-14.511 c -25.74,16.005 -37.718,48.419 -26.952,78.01 12.349,33.939 50.008,51.506 83.948,39.158 33.94,-12.35 51.506,-50.01 39.157,-83.949 -4.953,-13.614 -13.985,-24.583 -25.208,-32.055 z"
           id="path95-5"
           inkscape:connector-curvature="0"
           style="fill:#004d95" />
        <path
           d="M 59.488,56.95 53.711,41.072 c -11.663,10.06 -16.546,26.664 -10.976,41.976 7.195,19.777 29.139,30.012 48.917,22.817 19.777,-7.196 30.013,-29.141 22.816,-48.918 -2.732,-7.511 -7.596,-13.641 -13.655,-17.967 l -7.782,12.903 c 3.237,2.569 5.828,6.031 7.342,10.192 C 104.741,74.08 98.528,87.4 86.523,91.767 74.52,96.135 61.2,89.921 56.832,77.916 54.185,70.648 55.434,62.903 59.488,56.95 Z"
           id="path97-5"
           inkscape:connector-curvature="0"
           style="fill:#555555" />
        <path
           d="m 81.166,77.046 c 3.893,-1.416 5.9,-5.72 4.484,-9.612 L 78.157,46.841 c 3.38,-0.062 6.69,0.637 9.724,1.963 L 95.67,35.892 c -9.056,-4.528 -19.875,-5.487 -30.118,-1.76 -2.412,0.877 -4.68,1.978 -6.793,3.263 l 12.795,35.168 c 1.416,3.892 5.72,5.899 9.612,4.483 z"
           id="path99-4"
           inkscape:connector-curvature="0"
           style="fill:#004d95" />
        <path
           d="m 71.987,29.88 -3.412,-9.377 c 11.633,-2.364 23.417,-0.46 33.474,4.81 l 7.755,-12.856 C 93.889,3.839 74.51,1.786 56.206,8.445 53.821,9.313 51.527,10.317 49.31,11.424 l 8.581,23.584 c 2.13,-1.26 4.398,-2.35 6.807,-3.227 2.409,-0.877 4.846,-1.498 7.289,-1.901 z"
           id="path101-7"
           inkscape:connector-curvature="0"
           style="fill:#555555" />
      </g>
    </g>
    <path
       id="rect4523-9"
       d="m -130.52672,102.66894 v 8.99672 H 49.512053 v -8.99672 z m 68.941423,1.38226 h 2.446642 v 4.89771 h 2.828687 v 1.33445 h -5.275329 z m 5.430475,0 h 2.447367 v 4.89771 h 2.827962 v 1.33445 h -5.275329 z m 5.94879,0 h 2.446646 v 6.23216 h -2.446646 z m 2.945391,0 h 2.361101 v 4.64126 c 0,0.0668 0.0029,0.12266 0.0095,0.16858 0.0064,0.046 0.02012,0.0836 0.04133,0.11287 0.02121,0.0293 0.05104,0.0504 0.08917,0.0629 0.03812,0.0125 0.08868,0.0186 0.152242,0.0186 0.112259,0 0.223294,-0.025 0.333462,-0.075 0.110152,-0.0501 0.2089,-0.11877 0.295757,-0.20645 0.08898,-0.0898 0.160963,-0.19616 0.216041,-0.31932 0.05508,-0.12526 0.08264,-0.26254 0.08264,-0.41077 v -3.99261 h 2.338641 v 3.96761 c 0,0.17745 -0.02141,0.35701 -0.06379,0.53863 -0.04237,0.17954 -0.105919,0.35306 -0.190669,0.52007 -0.08473,0.16701 -0.190406,0.32469 -0.317509,0.47291 -0.125,0.14613 -0.272009,0.27363 -0.441492,0.38219 -0.167358,0.10856 -0.357214,0.19383 -0.569067,0.25646 -0.209733,0.0626 -0.44021,0.0943 -0.692313,0.0943 h -1.427388 c -0.237259,0 -0.456266,-0.0317 -0.657512,-0.0943 -0.201242,-0.0626 -0.384252,-0.1479 -0.549498,-0.25646 -0.163126,-0.10856 -0.308573,-0.23606 -0.435681,-0.38219 -0.124995,-0.14822 -0.230668,-0.3059 -0.317526,-0.47291 -0.08473,-0.16701 -0.149788,-0.34053 -0.194288,-0.52007 -0.04236,-0.18162 -0.06307,-0.36118 -0.06307,-0.53863 v -3.96761 z m 6.101036,0 h 3.62249 c 0.309285,0 0.597968,0.0452 0.867011,0.13501 0.271164,0.0876 0.506948,0.21292 0.706089,0.37576 0.201242,0.16283 0.358993,0.35977 0.473373,0.5915 0.116513,0.22963 0.174719,0.4854 0.174719,0.76723 0,0.21293 -0.03292,0.41587 -0.09859,0.60793 -0.06567,0.19205 -0.154493,0.36937 -0.266773,0.5322 -0.110168,0.16075 -0.239546,0.30562 -0.387841,0.43506 -0.146186,0.12734 -0.300061,0.23521 -0.461062,0.32289 l 1.204833,2.46458 h -2.478532 l -0.90907,-2.03239 v 2.03239 h -2.446643 z m 6.187301,0 h 5.275325 v 1.43445 h -2.827966 v 1.01797 h 2.382861 v 1.39303 h -2.382861 v 1.05226 h 2.827966 v 1.33445 h -5.275325 z m 5.405812,0 h 2.31688 l 0.864129,1.33729 0.766243,-1.33729 h 2.685146 l -2.015306,3.0625 2.07548,3.16966 h -2.49812 l -0.876444,-1.24015 -0.775672,1.24015 h -2.542336 l 2.024735,-3.1568 z m -8.555651,1.41873 c -0.197026,0 -0.382303,0.0452 -0.556019,0.13502 -0.0064,0.004 -0.01404,0.0103 -0.0225,0.0186 -0.0084,0.008 -0.01229,0.0211 -0.01229,0.0378 v 1.09227 c 0,0.023 0.0062,0.0365 0.01883,0.0407 0.01496,0.002 0.02554,0.004 0.03187,0.004 0.139815,0 0.276842,-0.0233 0.410308,-0.0693 0.13347,-0.0459 0.251424,-0.10855 0.35521,-0.18788 0.105923,-0.0793 0.190901,-0.17213 0.254461,-0.2786 0.06567,-0.10647 0.09858,-0.22039 0.09858,-0.34147 0,-0.0751 -0.01459,-0.1408 -0.04422,-0.19716 -0.02754,-0.0563 -0.06733,-0.10316 -0.118163,-0.14074 -0.05084,-0.0375 -0.112101,-0.0655 -0.184119,-0.0843 -0.06991,-0.0188 -0.147239,-0.0286 -0.231985,-0.0286 z"
       style="color:#000000;display:inline;overflow:visible;visibility:visible;opacity:1;fill:#2b5a85;fill-opacity:1;fill-rule:nonzero;stroke:none;stroke-width:1.82970989;stroke-linecap:round;stroke-linejoin:round;stroke-miterlimit:4;stroke-dasharray:none;stroke-opacity:1;marker:none;enable-background:accumulate"
       inkscape:connector-curvature="0"
       sodipodi:nodetypes="ccccccccccccccccccccccccccscscscccsccscccccsscccccscccscccscccccccccccccccccccccccccccccccccccccccsscscccsccccc" />
    <path
       id="rect4523-9-5"
       d="m -154.24103,29.894514 v 8.99672 H 25.797746 v -8.99672 z m 68.941424,1.38226 h 2.446642 v 4.89771 h 2.828687 v 1.33445 h -5.275329 z m 5.430475,0 h 2.447367 v 4.89771 h 2.827962 v 1.33445 h -5.275329 z m 5.948792,0 h 2.446644 v 6.23216 h -2.446644 z m 2.945389,0 h 2.361102 v 4.64126 c 0,0.0668 0.0029,0.12266 0.0095,0.16858 0.0064,0.046 0.02011,0.0836 0.04133,0.11287 0.02122,0.0293 0.05104,0.0504 0.08917,0.0629 0.03812,0.0125 0.08868,0.0186 0.152244,0.0186 0.112258,0 0.223293,-0.025 0.333462,-0.075 0.110152,-0.0501 0.2089,-0.11877 0.295757,-0.20645 0.08898,-0.0898 0.160962,-0.19616 0.21604,-0.31932 0.05508,-0.12526 0.08264,-0.26254 0.08264,-0.41077 v -3.99261 h 2.338642 v 3.96761 c 0,0.17745 -0.02141,0.35701 -0.06379,0.53863 -0.04237,0.17954 -0.105918,0.35306 -0.19067,0.52007 -0.08473,0.16701 -0.190404,0.32469 -0.317508,0.47291 -0.124999,0.14613 -0.27201,0.27363 -0.441491,0.38219 -0.16736,0.10856 -0.357214,0.19383 -0.569069,0.25646 -0.209732,0.0626 -0.440208,0.0943 -0.692311,0.0943 h -1.427388 c -0.237259,0 -0.456266,-0.0317 -0.657513,-0.0943 -0.201242,-0.0626 -0.384252,-0.1479 -0.549497,-0.25646 -0.163126,-0.10856 -0.308573,-0.23606 -0.435682,-0.38219 -0.124994,-0.14822 -0.230669,-0.3059 -0.317526,-0.47291 -0.08473,-0.16701 -0.149789,-0.34053 -0.194289,-0.52007 -0.04236,-0.18162 -0.06307,-0.36118 -0.06307,-0.53863 v -3.96761 z m 6.101038,0 h 3.622489 c 0.309285,0 0.597969,0.0452 0.867011,0.13501 0.271163,0.0876 0.506947,0.21292 0.706088,0.37576 0.201242,0.16283 0.358995,0.35977 0.473374,0.5915 0.116512,0.22963 0.17472,0.4854 0.17472,0.76723 0,0.21293 -0.03292,0.41587 -0.09859,0.60793 -0.06567,0.19205 -0.154493,0.36937 -0.266772,0.5322 -0.11017,0.16075 -0.239548,0.30562 -0.387842,0.43506 -0.146185,0.12734 -0.300061,0.23521 -0.461063,0.32289 l 1.204833,2.46458 h -2.478532 l -0.909068,-2.03239 v 2.03239 h -2.446645 z m 6.187299,0 h 5.275326 v 1.43445 h -2.827967 v 1.01797 h 2.382861 v 1.39303 h -2.382861 v 1.05226 h 2.827967 v 1.33445 h -5.275326 z m 5.405814,0 h 2.316879 l 0.864129,1.33729 0.766244,-1.33729 h 2.685145 l -2.015307,3.0625 2.075481,3.16966 h -2.498119 l -0.876445,-1.24015 -0.775671,1.24015 h -2.542336 l 2.024734,-3.1568 z m -8.555652,1.41873 c -0.197027,0 -0.382304,0.0452 -0.556019,0.13502 -0.0064,0.004 -0.01405,0.0103 -0.02249,0.0186 -0.0084,0.008 -0.01228,0.0211 -0.01228,0.0378 v 1.09227 c 0,0.023 0.0062,0.0365 0.01884,0.0407 0.01495,0.002 0.02553,0.004 0.03187,0.004 0.139817,0 0.276842,-0.0233 0.410308,-0.0693 0.133472,-0.0459 0.251426,-0.10855 0.355211,-0.18788 0.105923,-0.0793 0.1909,-0.17213 0.25446,-0.2786 0.06567,-0.10647 0.09858,-0.22039 0.09858,-0.34147 0,-0.0751 -0.01458,-0.1408 -0.04422,-0.19716 -0.02754,-0.0563 -0.06733,-0.10316 -0.118163,-0.14074 -0.05084,-0.0375 -0.112101,-0.0655 -0.184121,-0.0843 -0.06991,-0.0188 -0.147238,-0.0286 -0.231984,-0.0286 z"
       style="color:#000000;display:inline;overflow:visible;visibility:visible;opacity:1;fill:url(#linearGradient4531-7-3);fill-opacity:1;fill-rule:nonzero;stroke:none;stroke-width:1.82970989;stroke-linecap:round;stroke-linejoin:round;stroke-miterlimit:4;stroke-dasharray:none;stroke-opacity:1;marker:none;enable-background:accumulate"
       inkscape:connector-curvature="0"
       sodipodi:nodetypes="ccccccccccccccccccccccccccscscscccsccscccccsscccccscccscccscccccccccccccccccccccccccccccccccccccccsscscccsccccc" />
  </g>
</svg>
